<?xml version="1.0" encoding="UTF-8" standalone="no"?>
<!-- Created with Inkscape (http://www.inkscape.org/) -->

<svg
   width="245.28168mm"
   height="116.02799mm"
   viewBox="0 0 245.28168 116.02799"
   version="1.1"
   id="svg1"
   xml:space="preserve"
   sodipodi:docname="diag2-w.svg"
   inkscape:version="1.4 (86a8ad7, 2024-10-11)"
   xmlns:inkscape="http://www.inkscape.org/namespaces/inkscape"
   xmlns:sodipodi="http://sodipodi.sourceforge.net/DTD/sodipodi-0.dtd"
   xmlns="http://www.w3.org/2000/svg"
   xmlns:svg="http://www.w3.org/2000/svg"><sodipodi:namedview
     id="namedview1"
     pagecolor="#ffffff"
     bordercolor="#000000"
     borderopacity="0.25"
     inkscape:showpageshadow="2"
     inkscape:pageopacity="0.0"
     inkscape:pagecheckerboard="0"
     inkscape:deskcolor="#d1d1d1"
     inkscape:document-units="mm"
     inkscape:zoom="0.22033791"
     inkscape:cx="465.19458"
     inkscape:cy="1073.3514"
     inkscape:window-width="1920"
     inkscape:window-height="991"
     inkscape:window-x="-9"
     inkscape:window-y="-9"
     inkscape:window-maximized="1"
     inkscape:current-layer="layer1" /><defs
     id="defs1"><clipPath
       clipPathUnits="userSpaceOnUse"
       id="clipPath2"><rect
         style="fill:none;stroke:#000000;stroke-width:0.899583"
         id="rect2"
         width="167.51877"
         height="28.816298"
         x="21.516171"
         y="105.65977" /></clipPath></defs><g
     inkscape:label="Capa 1"
     inkscape:groupmode="layer"
     id="layer1"
     transform="translate(12.11554,-119.87844)"><path
       style="fill:#ffff00;stroke:none;stroke-width:1.00565"
       d="m 217.39812,208.48606 c -0.75861,-0.39215 -1.56848,-1.10991 -1.89606,-1.68043 -0.7839,-1.36526 -0.80161,-4.00501 -0.0354,-5.28943 l 0.5734,-0.96129 h 3.45157 c 3.43445,0 3.45433,0.004 4.00321,0.8134 0.80759,1.19081 0.77343,4.46597 -0.0583,5.57985 -1.56396,2.09477 -3.83986,2.6744 -6.03845,1.5379 z"
       id="path13" /><path
       style="fill:#ffff00;stroke:none;stroke-width:1.00135"
       d="m 199.27249,208.79883 c -2.01192,-0.58536 -3.57955,-3.26055 -3.17174,-5.41269 0.49026,-2.58733 1.13071,-2.90644 5.53526,-2.75802 l 2.65064,0.0894 0.69558,1.40242 c 1.22165,2.46309 0.3264,5.19465 -2.08511,6.36205 -1.37753,0.66686 -2.18051,0.73706 -3.62463,0.3169 z"
       id="path12" /><path
       style="fill:#ffff00;stroke:none;stroke-width:1.0076"
       d="m 181.52377,208.86499 c -1.40858,-0.33994 -2.12369,-0.8283 -2.78886,-1.90456 -0.74501,-1.20547 -0.84341,-3.93581 -0.18753,-5.20412 0.52219,-1.00982 1.33934,-1.21031 4.93289,-1.21031 2.52442,0 2.6431,0.0303 3.14874,0.80194 0.38061,0.58087 0.52545,1.39242 0.52545,2.94405 0,1.97481 -0.0695,2.21516 -0.88906,3.0771 -1.57249,1.65371 -2.6626,1.99762 -4.74163,1.4959 z"
       id="path11" /><rect
       style="fill:#b3b3b3;stroke:#f9f9f9;stroke-width:0.899583;stroke-opacity:1"
       id="rect8"
       width="33.940331"
       height="23.178761"
       x="54.517391"
       y="179.39888" /><path
       id="path6"
       style="fill:#f9f9f9"
       d="m 11.868526,124.89987 c -2.835395,0.0164 -5.1356763,0.69961 -4.2333331,1.25729 0.456205,0.28195 0.1613015,0.49704 -1.0051066,0.73329 -2.9409853,0.59568 -5.5713086,0.87322 -10.31875,1.08882 -5.4102342,0.24571 -5.7093813,0.27892 -5.5045736,0.6103 0.1580735,0.2558 6.9860962,0.25801 9.63197021,0.003 4.04733429,-0.38992 7.02198949,-0.93621 8.02845049,-1.47485 0.520016,-0.2783 1.1553963,-0.0108 1.4991333,0.63149 0.1301023,0.2431 0.4426193,0.41858 0.7456913,0.41858 0.408225,0 0.521932,0.10955 0.521932,0.50333 0,0.27678 0.153811,0.63077 0.342098,0.78703 0.312434,0.2593 0.335553,2.33268 0.264583,23.73292 -0.04277,12.89663 -0.159129,23.44816 -0.258899,23.44818 -0.09977,2e-5 -0.115226,0.16679 -0.03411,0.37052 0.164941,0.4143 0.163507,7.05414 -0.0016,7.21919 -0.0579,0.0579 -0.243692,-0.078 -0.413411,-0.3023 -0.16972,-0.2243 -0.312043,-0.29404 -0.315743,-0.15451 -0.0037,0.13952 0.23781,0.51755 0.536401,0.83974 0.502038,0.5417 0.515487,0.60553 0.180351,0.85059 -0.199326,0.14545 -0.443333,0.21488 -0.542603,0.15348 -0.09926,-0.0614 -0.180867,-0.0106 -0.180867,0.11266 0,0.12329 -0.103459,0.22427 -0.230477,0.22427 -0.149439,0 -0.207318,-0.46691 -0.163298,-1.32292 0.0662,-1.2873 -0.281236,-2.102 -0.412377,-0.96686 -0.071037,0.61486 0.03989,0.59661 -5.2084681,0.86144 -1.462961,0.0738 -1.525978,0.54011 -0.084233,0.62271 l 1.124996,0.0646 0.062528,1.5689 c 0.040775,1.01732 -0.022464,1.62167 -0.1803507,1.71927 -0.1796125,0.11101 -0.1820848,0.26517 -0.00982,0.58705 0.1299751,0.24286 0.2335774,1.47696 0.2335774,2.78329 v 2.34714 l -3.86333,-0.0579 -3.8628133,-0.0579 -0.057361,-4.28966 -0.057361,-4.28966 0.5865275,-0.22738 c 0.33242391,-0.1287 1.48072007,-0.19228 2.6504842,-0.14728 2.040452,0.0784 2.0634399,0.0738 2.0634399,-0.41186 0,-0.42003 -0.05917,-0.4597 -0.4092773,-0.27233 -0.2251799,0.12052 -1.4797694,0.2191 -2.78794353,0.2191 -3.35740967,0 -3.15277917,-0.33112 -3.15277917,5.09737 v 4.39714 l 0.5581055,0.43874 c 0.5162207,0.40609 0.83458,0.43873 4.2813924,0.43873 h 3.7238037 l -0.8004679,0.65991 c -1.1435662,0.94263 -1.0235496,1.53987 0.326595,1.62677 1.2451094,0.0801 1.8101476,-0.21343 2.1972819,-1.13998 0.280998,-0.67249 0.3702789,-0.72347 1.2588379,-0.72347 0.654786,0 0.9945504,0.0999 1.0779704,0.31729 0.085329,0.2224 0.4322012,0.31781 1.1575522,0.31781 h 1.035595 v 18.09709 18.0976 H -1.1663371 c -5.8967766,0 -9.1247119,0.0222 -10.9492029,0.0765 v 0.53795 c 0.0964,0.006 0.130794,0.0155 0.234611,0.0207 1.840788,0.0908 2.1175234,0.15086 1.9445846,0.42323 -0.1108766,0.17462 -0.2033556,0.81766 -0.2051556,1.42885 -0.003,1.04505 0.02841,1.11156 0.5260662,1.11156 0.5515261,0 0.5841225,-0.0778 0.6216675,-1.48208 l 0.019637,-0.74052 7.0879394,-0.10594 c 3.898213,-0.0582 8.5639007,-0.0582 10.3683594,0 l 3.2809365,0.10594 0.06356,1.11104 c 0.05875,1.02045 0.106613,1.11156 0.582394,1.11156 0.451262,0 0.522464,-0.1024 0.553454,-0.79375 l 0.03566,-0.79375 0.0832,0.79375 c 0.07479,0.71495 0.143596,0.79375 0.694531,0.79375 0.596159,0 0.613541,-0.0313 0.675411,-1.2175 0.04242,-0.81337 0.15081,-1.20999 0.327629,-1.19579 0.145521,0.0116 1.025475,0.0352 1.955436,0.0527 1.470175,0.0276 1.686837,0.0805 1.659847,0.40256 -0.01707,0.20373 -0.01587,0.72771 0.0026,1.16427 0.02943,0.69665 0.09835,0.79375 0.562756,0.79375 0.510006,0 0.529167,-0.0499 0.529167,-1.37201 0,-1.47998 0.09603,-1.36459 -1.375627,-1.66036 -0.232833,-0.0468 0.481542,-0.0627 1.5875,-0.0357 1.105958,0.027 2.058457,0.0614 2.116667,0.0765 0.0582,0.0151 0.10542,0.4713 0.10542,1.01389 0,0.62749 0.101581,1.02087 0.279053,1.08107 0.153454,0.052 0.261508,-0.0344 0.239778,-0.19223 -0.153731,-1.11674 -0.03756,-1.23972 1.174606,-1.23972 h 1.16427 v 1.16427 c 0,0.87503 0.07611,1.16427 0.306441,1.16427 0.220437,0 0.3245,-0.31218 0.37052,-1.11156 l 0.06408,-1.11104 h 32.279166 32.27865 l 0.06408,1.11104 c 0.05909,1.02635 0.104248,1.11156 0.591695,1.11156 0.516358,0 0.526318,-0.0309 0.465088,-1.42007 -0.05777,-1.31063 -0.103263,-1.43112 -0.591695,-1.56631 -0.291043,-0.0806 -0.410104,-0.15635 -0.264583,-0.16795 0.145521,-0.0116 0.264583,-0.11603 0.264583,-0.23203 0,-0.1388 -9.823732,-0.22928 -28.733647,-0.26458 l -28.733646,-0.0537 -0.0016,-0.53227 h -1.055232 l -0.0016,0.53227 -3.33468,0.0584 -3.33468,0.0584 0.0015,-0.64906 H 24.7804 v 0.6382 h -2.844788 c -1.564755,0 -2.881086,-0.0713 -2.924886,-0.15864 -5.36e-4,-0.001 5.22e-4,-0.23969 0,-0.2434 H 17.86816 c -7.02e-4,0.004 -0.0014,0.24225 -0.0021,0.2434 -0.170866,0.28346 -3.460033,0.18589 -3.571358,-0.10594 -0.05547,-0.14552 -0.07657,-8.26538 -0.04651,-18.04438 l 0.05478,-17.78031 0.635103,-0.0703 c 0.34925,-0.0388 0.777772,-0.19671 0.952397,-0.35036 0.105756,-0.0931 0.367534,-0.17774 0.665592,-0.24702 v -0.18706 h 2.597258 c 0.06307,-2.61211 0.163251,-2.86553 0.358634,-2.91662 0.530831,-0.13881 0.509452,-0.48968 -0.03876,-0.63304 -0.337017,-0.0881 -0.42311,-0.25359 -0.37052,-0.71262 l 0.06873,-0.59789 2.80448,-0.0589 2.80448,-0.0589 v 0.74672 c 0,0.18329 -0.03948,0.22415 -0.05478,0.32866 h 0.793233 l 0.0026,-0.95756 h 3.175 3.175 l 0.07286,0.51728 c 0.02182,0.15457 0.0025,0.30559 -0.04703,0.44028 h 1.35909 l 0.09612,-0.95756 4.745964,-0.0569 c 3.066057,-0.0369 4.845363,-0.13961 5.027083,-0.29042 0.225826,-0.18742 0.28112,-2.00196 0.28112,-9.20357 v -8.97 h 3.49281 3.492293 v 18.94252 18.94199 l 22.59552,0.0548 c 12.427479,0.0302 22.809522,0.0248 23.07146,-0.0124 0.41177,-0.0585 0.476457,-0.19448 0.476457,-1.00252 v -0.93431 l 6.191354,-0.0563 6.19083,-0.0563 0.10594,-9.84229 0.10594,-9.8423 2.38125,-0.0599 2.38125,-0.0599 v 10.80141 10.80296 l 21.21937,-0.0537 21.2199,-0.0538 0.0548,-9.36635 0.0553,-9.36635 h 3.38429 c 2.1152,0 3.3848,0.0796 3.3848,0.21187 0,0.11636 0.14268,0.21136 0.3173,0.21136 0.2748,0 0.31729,0.81053 0.31729,6.0234 v 6.02289 l -1.53427,0.0625 -1.53479,0.062 v 4.23333 4.23334 l 1.32291,0.063 1.32292,0.0631 v 2.30322 c 0,1.81152 0.0712,2.37387 0.3328,2.63549 0.27664,0.27662 0.94611,0.3328 3.97908,0.3328 2.55411,0 3.72315,-0.0763 3.90105,-0.25425 0.1913,-0.19132 0.25374,-3.08991 0.25374,-11.74708 V 193.783 l 2.06395,0.007 c 1.87674,0.006 2.1165,0.0529 2.64584,0.51883 0.55698,0.4902 0.58187,0.5981 0.58187,2.49132 0,1.25673 0.0929,2.07109 0.25425,2.23242 0.1397,0.1397 0.66368,0.25425 1.16427,0.25425 0.50059,0 0.91002,0.10051 0.91002,0.22376 0,0.12324 -0.278,0.57589 -0.61753,1.00562 -2.17743,2.75588 -2.09806,5.35107 0.23564,7.69772 0.99533,1.00087 2.13583,1.32053 4.11965,1.15549 2.19555,-0.18266 3.06711,-0.78732 4.30051,-2.98328 0.30544,-0.54382 0.4284,-1.14974 0.4284,-2.11202 0,-1.4753 -0.43101,-2.53316 -1.51567,-3.7207 -0.39089,-0.42798 -0.60323,-0.89388 -0.60823,-1.33274 -0.008,-0.72413 -0.91213,-2.20829 -1.52756,-2.5063 -0.20373,-0.0986 -0.53679,-0.26079 -0.74052,-0.36019 -0.27454,-0.1339 -0.38698,-0.48981 -0.43408,-1.37562 l -0.0636,-1.19528 h 5.28701 c 4.14091,0 5.34875,0.0617 5.57124,0.28422 0.15623,0.15624 0.49648,0.3975 0.75602,0.5364 0.43598,0.2333 0.47181,0.40215 0.47181,2.21382 0,1.24304 0.0933,2.05385 0.25425,2.21485 0.1397,0.1397 0.66368,0.25425 1.16427,0.25425 1.01396,0 1.18528,0.33124 0.5395,1.04283 -0.20373,0.22449 -0.46546,0.53552 -0.58188,0.69091 -0.11641,0.15538 -0.33543,0.43902 -0.48627,0.63046 -0.41985,0.53284 -0.65605,2.47836 -0.45372,3.73362 0.31919,1.98034 1.98774,3.6799 3.8933,3.96565 0.53207,0.0802 1.5867,0.079 2.34404,-0.002 1.27033,-0.13604 1.45558,-0.22368 2.39056,-1.13533 1.4114,-1.37616 1.73116,-2.11275 1.73116,-3.98735 0,-1.68557 -0.11674,-1.99443 -1.32137,-3.49488 -0.44401,-0.55305 -0.7953,-1.22473 -0.7953,-1.52084 0,-1.2078 -0.76702,-2.23871 -2.07533,-2.79052 -0.6798,-0.28673 -0.69698,-0.32594 -0.63458,-1.41232 l 0.0641,-1.11776 5.65081,-0.0563 c 5.26857,-0.0525 5.67614,-0.0294 6.03219,0.33693 0.21002,0.21609 0.54868,0.45235 0.75241,0.52555 0.31681,0.11382 0.37052,0.41912 0.37052,2.1084 0,1.254 0.0925,2.06805 0.25373,2.22932 0.1397,0.1397 0.66368,0.25373 1.16427,0.25373 1.09182,0 1.17358,0.308 0.3235,1.21801 -2.1886,2.3429 -2.0923,5.44363 0.23978,7.71788 1.04176,1.01593 2.11579,1.3112 4.15375,1.14153 2.10885,-0.17557 3.01189,-0.8067 4.21059,-2.9409 0.33621,-0.59859 0.44907,-1.16405 0.44907,-2.25051 0,-1.34491 -0.0628,-1.54569 -0.86196,-2.74247 -0.47426,-0.7102 -0.95051,-1.34572 -1.05833,-1.41232 -0.10779,-0.0666 -0.19909,-0.42485 -0.20309,-0.79633 -0.008,-0.72471 -0.91184,-2.20919 -1.52756,-2.50734 -0.20373,-0.0986 -0.53731,-0.2609 -0.74104,-0.3607 -0.31862,-0.15604 -0.37853,-0.55482 -0.42943,-2.85409 l -0.0594,-2.67322 6.62079,-0.0558 c 6.42528,-0.0543 6.6213,-0.0685 6.6213,-0.47283 0,-0.40598 -0.17607,-0.41697 -6.61458,-0.41497 l -6.61459,0.002 v -1.44384 c 0,-1.18383 0.0663,-1.46738 0.37001,-1.5751 0.20373,-0.0722 0.53017,-0.26766 0.72502,-0.4346 0.28702,-0.24594 1.47227,-0.31038 6.24406,-0.33848 5.7372,-0.0338 5.89008,-0.0455 5.89008,-0.45785 0,-0.41058 -0.19136,-0.42792 -6.35,-0.57412 -3.4925,-0.083 -6.77904,-0.14206 -7.30291,-0.13126 -0.52388,0.0109 -4.83373,0.017 -9.57771,0.0139 -4.74398,-0.003 -9.10157,-0.006 -9.68365,-0.006 -2.96313,-8e-4 -16.61643,-0.0104 -17.30385,-0.0124 -0.43656,-10e-4 -6.58009,0.041 -13.6524,0.0941 l -12.85865,0.0961 -0.003,-11.69903 c -0.002,-6.43466 -0.0793,-11.81907 -0.17208,-11.96516 -0.13379,-0.21073 -4.51801,-0.25468 -21.21628,-0.21188 l -21.04781,0.0543 -0.0543,12.84211 -0.0548,12.84263 -2.86391,0.0693 c -2.26108,0.0547 -2.90628,0.13588 -3.06441,0.38654 -0.11823,0.18749 -0.20161,4.2831 -0.20361,10.00145 l -0.003,9.68365 h -5.60793 -5.608437 l -0.05374,-22.80688 -0.05374,-22.80739 h -22.96604 -22.96604 l -0.05684,4.69325 -0.05684,4.69274 -3.858679,0.0698 c -2.122401,0.0383 -3.978259,0.14662 -4.12378,0.24082 -0.204903,0.13261 -0.264583,2.22151 -0.264583,9.26041 v 9.08885 H 37.707934 33.27823 l -0.02532,-6.13089 h -1.329635 c -0.05398,3.45301 -0.130116,5.07256 -0.277502,5.07256 -0.418026,0 -0.38116,0.42383 0.06666,0.76378 0.313073,0.23762 -0.146059,0.28184 -2.967261,0.28784 l -3.33778,0.007 5.16e-4,-0.83251 h -2.042252 c -0.01644,0.0331 -0.06666,0.0495 -0.06666,0.0915 0,0.2217 0.223116,0.31781 0.740524,0.31781 0.407458,0 0.74104,0.0949 0.74104,0.21136 0,0.13027 -1.058436,0.21187 -2.75177,0.21187 -1.693333,0 -2.75177,-0.0816 -2.75177,-0.21187 0,-0.11636 0.143185,-0.21136 0.31781,-0.21136 0.468229,0 0.386027,-0.44496 -0.105937,-0.57361 -0.24321,-0.0636 -0.33375,-1.44116 -0.377755,-5.13457 h -1.091406 c -2.82e-4,0.0303 -0.0018,0.65329 -0.0021,0.66094 -0.0073,0.24489 -0.138158,0.3175 -0.433565,0.2403 -0.307091,-0.0803 -0.430225,-0.002 -0.448035,0.28422 -0.02205,0.35483 -0.03451,0.35744 -0.12144,0.0248 -0.05324,-0.20373 -0.226982,-0.37052 -0.386023,-0.37052 -0.411799,0 -0.428419,-1.36673 -0.365869,-29.88344 l 0.05478,-24.90908 0.47439,-0.0677 c 0.374404,-0.0532 0.487745,-0.2252 0.537435,-0.81546 0.0831,-0.98716 -0.856137,-2.29676 -2.223637,-3.10058 -0.943825,-0.5548 -1.169017,-0.59533 -3.237012,-0.58343 z m 0.08992,0.75706 c 0.921243,0.0268 1.786847,0.13044 2.189531,0.29869 0.804247,0.33603 1.742529,1.09109 1.742529,1.4025 0,0.0962 -1.023834,0.16713 -2.275313,0.15813 -2.230624,-0.0164 -2.300521,-0.0318 -3.54552,-0.78703 l -1.2702071,-0.7705 0.6351033,-0.14056 c 0.6258398,-0.13832 1.6026348,-0.18804 2.5238768,-0.16123 z m 0.972034,3.78116 h 1.056783 1.056266 v 27.41073 27.41073 H 13.985193 12.92686 v -3.38687 c 0,-2.92624 0.04508,-3.38636 0.330212,-3.38636 0.1815,0 0.270007,-0.0967 0.196887,-0.21497 -0.07312,-0.11835 -0.211305,-0.16689 -0.307475,-0.10749 -0.09617,0.0594 -0.208814,-0.0102 -0.250114,-0.15503 -0.0413,-0.14485 -0.05026,-10.90784 -0.02015,-23.9174 z m 5.235339,17.07183 c -0.08731,0.054 -0.158646,0.28305 -0.158646,0.50901 0,0.22596 0.07134,0.41083 0.158646,0.41083 0.08731,0 0.158647,-0.22909 0.158647,-0.50901 0,-0.27993 -0.07134,-0.46483 -0.158647,-0.41083 z m 77.715153,15.31121 0.123507,0.68885 c 0.06809,0.37888 0.0961,10.5469 0.06253,22.59603 l -0.06098,21.90771 H 86.6929 77.379773 l 0.03927,-2.38073 c 0.03925,-2.37878 0.03866,-2.38088 -0.49196,-2.51406 -0.292066,-0.0733 -0.622287,-0.0418 -0.733805,0.0698 -0.114763,0.11477 -0.176824,1.38952 -0.143144,2.93729 l 0.05943,2.7342 9.881568,0.0553 c 9.400949,0.0523 9.887918,0.0741 10.006107,0.44649 0.06837,0.21529 0.06452,0.54743 -0.0088,0.73846 -0.122395,0.31892 -1.963879,0.34726 -22.547461,0.34726 H 51.02686 v -18.73219 -18.73271 h 9.41958 9.419063 v 4.22094 c 0,2.79848 0.0771,4.26872 0.228927,4.36252 0.125946,0.0778 3.704181,0.14001 7.951969,0.13901 5.628882,-0.002 7.748197,0.0639 7.815027,0.24133 0.05044,0.13391 0.115407,2.99802 0.144177,6.36447 0.03978,4.65442 0.115538,6.1418 0.315743,6.2084 0.144804,0.0482 0.35652,-0.15786 0.470772,-0.45837 0.114251,-0.3005 0.35321,-0.54673 0.530717,-0.54673 0.454919,0 0.402041,-0.35319 -0.07131,-0.47698 -0.302677,-0.0791 -0.419492,-0.36639 -0.505912,-1.24178 -0.06183,-0.62634 -0.05142,-1.24424 0.02325,-1.37356 0.394169,-0.68269 2.888431,-2.55158 4.369242,-3.2737 2.159879,-1.05328 2.917364,-1.67474 2.823084,-2.31511 -0.05037,-0.34213 -0.303165,-0.56555 -0.852661,-0.75499 -0.666028,-0.22959 -0.915791,-0.21691 -1.698605,0.0858 -1.249557,0.48316 -2.225329,1.21646 -2.61121,1.96267 -0.289933,0.56066 -0.288633,0.63484 0.0124,0.75035 0.183717,0.0705 0.361321,0.0926 0.394291,0.0491 0.03297,-0.0435 0.264571,-0.41966 0.514697,-0.83613 0.586091,-0.97587 2.453298,-2.04775 2.908866,-1.66966 0.702596,0.5831 0.153576,1.43147 -1.487764,2.29857 -0.463942,0.24509 -0.917894,0.44545 -1.008724,0.44545 -0.308098,0 -2.456593,1.52028 -2.571419,1.81952 -0.06278,0.1636 -0.259938,0.29714 -0.438217,0.29714 -0.279403,0 -0.324011,-0.54023 -0.324011,-3.91552 0,-2.98884 -0.06264,-3.91721 -0.264583,-3.92121 -0.145521,-0.003 -3.622455,-8.3e-4 -7.726143,0.005 l -7.461044,0.01 v -4.30361 c 0,-3.38176 -0.06427,-4.39159 -0.30024,-4.71444 -0.288684,-0.395 -0.681803,-0.41321 -10.164237,-0.47181 l -9.863998,-0.061 0.05736,-4.48965 0.05684,-4.49016 22.373828,-0.0538 z m 18.645888,0.21342 h 20.53208 20.53156 v 11.53573 11.53573 h -2.34301 c -2.30872,0 -2.34191,0.007 -2.27531,0.47646 0.0647,0.45573 0.16548,0.4789 2.34301,0.5364 l 2.27531,0.06 v 1.79214 1.79213 l -1.32291,0.0377 c -0.72761,0.0208 -1.75144,0.0447 -2.27532,0.0527 -0.82116,0.013 -0.96179,0.0809 -1.02009,0.49144 -0.0667,0.46925 -0.0337,0.47646 2.27738,0.47646 h 2.34559 l -0.0553,9.04854 -0.0553,9.04906 -20.33675,0.0537 c -11.18512,0.0297 -20.40013,-0.01 -20.47833,-0.0879 -0.0782,-0.0782 -0.14211,-4.79392 -0.14211,-10.47894 v -10.33632 h 2.19521 2.1947 l 0.16588,1.95802 c 0.091,1.07685 0.18639,2.29108 0.21239,2.69854 0.23641,3.70051 0.58015,6.48581 0.83509,6.76703 0.16165,0.17831 0.84485,0.65759 1.51826,1.06505 0.67341,0.40745 1.45678,0.95596 1.74097,1.21905 0.28419,0.2631 0.54048,0.45353 0.56948,0.42323 0.0502,-0.0525 -0.41169,-8.3819 -0.63614,-11.46855 -0.53524,-7.36111 -0.5841,-8.50336 -0.35191,-8.27133 0.1165,0.11641 0.31715,1.92596 0.44545,4.02146 0.12831,2.0955 0.32241,5.00072 0.43149,6.45593 0.10907,1.4552 0.30452,4.21725 0.4346,6.13813 0.2468,3.6444 0.42601,4.23719 1.18184,3.91449 0.21275,-0.0908 0.65326,-0.14392 0.97927,-0.11782 0.32601,0.0261 0.72691,-0.0639 0.8909,-0.19999 0.17238,-0.14309 0.55586,-0.19057 0.90847,-0.11317 0.42321,0.093 0.69358,0.0323 0.88419,-0.1974 0.19796,-0.23858 0.47415,-0.29339 0.98857,-0.19689 0.42916,0.0805 0.83353,0.0351 1.01337,-0.11421 0.18038,-0.14965 0.58379,-0.19489 1.01648,-0.11369 0.51407,0.0964 0.79396,0.0425 0.98702,-0.19016 0.18206,-0.21939 0.46902,-0.28474 0.88522,-0.20154 0.35867,0.0717 0.74935,0.0129 0.93482,-0.14108 0.18385,-0.15269 0.57596,-0.21283 0.92708,-0.14263 0.37094,0.0742 0.76284,0.005 1.00459,-0.17828 0.25894,-0.19585 0.64689,-0.25505 1.11828,-0.17105 0.53599,0.0956 0.78807,0.0377 0.97926,-0.22376 0.20033,-0.27397 0.37496,-0.30756 0.78704,-0.15089 0.38977,0.14819 0.64964,0.11736 0.98392,-0.11679 0.30042,-0.21044 0.67072,-0.27047 1.09295,-0.17777 0.3914,0.086 0.75933,0.0395 0.95137,-0.11989 0.30776,-0.25542 1.34879,-0.40699 2.87682,-0.41909 0.42522,-0.003 0.88358,-0.13917 1.01854,-0.30179 0.1638,-0.19738 0.48696,-0.25637 0.97152,-0.17777 0.43443,0.0705 0.85288,0.0125 1.04232,-0.1447 0.18326,-0.15212 0.5422,-0.20605 0.85266,-0.12815 0.29494,0.074 0.72853,0.0316 0.96325,-0.0941 0.38963,-0.20854 0.4158,-0.37007 0.29972,-1.85725 -0.24842,-3.18283 -0.52517,-6.31453 -0.74208,-8.40208 -0.34142,-3.28595 -0.82654,-8.22866 -0.83354,-8.49508 -0.004,-0.13211 -0.53513,-0.30626 -1.18184,-0.38706 -0.90353,-0.11289 -1.29429,-0.0697 -1.6862,0.18707 -0.84966,0.55669 -1.53033,0.36606 -0.9095,-0.25477 0.33781,-0.33781 0.21473,-0.41738 -0.77928,-0.50178 -0.72906,-0.0619 -0.84698,-0.013 -0.84698,0.35089 0,0.41862 -0.85791,0.95188 -1.53169,0.95188 -0.2585,0 -0.26948,-0.0603 -0.0579,-0.31523 0.41377,-0.49857 0.10547,-0.98906 -0.52245,-0.83147 -0.41063,0.10307 -0.53381,0.0526 -0.53381,-0.21859 0,-0.28353 -0.17531,-0.33972 -0.89969,-0.28732 -0.74092,0.0536 -0.91133,0.14705 -0.96583,0.5302 -0.0558,0.39238 -0.22149,0.47526 -1.05834,0.52916 -0.54568,0.0352 -0.99218,0.16569 -0.99218,0.29042 0,0.38205 -0.68517,0.93741 -1.15652,0.93741 -0.37162,0 -0.40991,-0.0666 -0.23151,-0.39997 0.1756,-0.32811 0.1292,-0.42246 -0.25735,-0.52607 -0.63251,-0.16973 -1.74308,-0.16533 -1.91565,0.007 -0.0766,0.0766 -0.0309,0.27007 0.10181,0.42994 0.18643,0.22464 0.15033,0.35975 -0.1602,0.5948 -0.22101,0.16728 -0.57075,0.30658 -0.7767,0.31058 -0.29454,0.005 -0.34581,-0.10614 -0.24133,-0.52245 0.10044,-0.40016 0.0497,-0.52917 -0.20774,-0.52917 -0.18725,0 -0.34054,-0.095 -0.34054,-0.21136 0,-0.25579 -0.15028,-0.21815 1.37356,-0.34674 1.69138,-0.14274 1.85422,-0.3326 0.59583,-0.6935 -0.4628,-0.13273 -0.85436,-0.0759 -1.4888,0.21497 -0.69179,0.31715 -0.98748,0.35067 -1.50275,0.17105 -0.73495,-0.25621 -1.72064,-0.18724 -1.78904,0.12506 -0.0255,0.11642 0.31677,0.24152 0.76016,0.27802 0.76563,0.0631 0.80252,0.10006 0.74052,0.73432 -0.0456,0.46579 -0.23747,0.76386 -0.6351,0.98599 -0.60969,0.3406 -1.0488,0.17029 -0.63304,-0.24547 0.4608,-0.46081 0.25851,-0.58911 -0.92811,-0.58911 -1.06976,0 -1.16625,0.0382 -1.04799,0.41083 0.14446,0.45514 -0.39483,0.85938 -1.14619,0.85938 -0.45795,0 -0.58828,-0.30516 -0.22582,-0.52917 0.34564,-0.21362 0.24283,-0.49087 -0.23927,-0.64389 -0.65035,-0.20641 -0.0901,-0.51328 0.94517,-0.51728 0.5533,-0.002 0.7838,-0.0873 0.7245,-0.26768 -0.12182,-0.37101 -1.17747,-0.45627 -1.57406,-0.12713 -0.21277,0.17662 -0.80281,0.25296 -1.66088,0.21446 -1.32991,-0.0597 -1.33111,-0.0593 -1.4733,0.58808 -0.10973,0.49963 -0.25685,0.6475 -0.64234,0.6475 -0.27492,0 -0.5535,-0.0873 -0.6196,-0.1943 -0.17263,-0.27932 -2.15244,-0.66995 -2.57452,-0.50798 -0.31856,0.12225 -0.34263,0.45398 -0.23254,3.17087 l 0.12299,3.03495 h -2.20917 -2.20865 v -12.48864 z m -33.320961,1.9048 c -0.456384,0 -0.968933,0.35577 -0.968933,0.67231 0,0.0903 0.295764,0.10475 0.656807,0.0325 0.564481,-0.1129 0.64561,-0.0747 0.57981,0.27027 -0.04324,0.2267 -0.287955,0.43116 -0.562756,0.47026 -0.605366,0.0862 -0.495129,0.51352 0.173116,0.67127 0.828783,0.19565 0.767585,0.63511 -0.08837,0.63511 -0.805782,0 -1.092005,0.51678 -0.38809,0.70073 0.203729,0.0532 0.389781,0.10794 0.413411,0.12144 0.02363,0.0135 0.283461,-0.085 0.577743,-0.21911 0.604096,-0.27524 0.908442,-0.95759 0.575675,-1.29036 -0.121676,-0.12167 -0.166652,-0.49278 -0.100252,-0.82476 0.143631,-0.71816 -0.221643,-1.23971 -0.868164,-1.23971 z m -14.355713,0.016 c -0.294296,-0.0314 -0.588962,0.0538 -0.766878,0.2682 -0.313257,0.37748 -0.07667,0.58288 0.503845,0.43718 0.812448,-0.20392 0.809104,0.46945 -0.0072,1.37304 -0.823296,0.91129 -0.91031,1.22742 -0.365869,1.33326 v 5.1e-4 c 0.203729,0.0394 0.684547,0.0351 1.068152,-0.009 0.768724,-0.089 0.820688,-0.51993 0.07596,-0.62942 -0.458233,-0.0674 -0.459018,-0.0744 -0.0708,-0.6351 0.601568,-0.86888 0.668918,-1.2191 0.327628,-1.70636 -0.176677,-0.25224 -0.470515,-0.40059 -0.764811,-0.43201 z m 2.722831,0.007 c -0.23222,-0.003 -0.477565,0.12506 -0.7953,0.38241 -0.697322,0.5648 -0.684693,2.23444 0.02119,2.80603 0.622576,0.50413 0.771678,0.48975 1.393714,-0.13229 0.670944,-0.67094 0.720145,-2.03112 0.09612,-2.65514 -0.264518,-0.26452 -0.483498,-0.39815 -0.715719,-0.40101 z m 18.247982,0.0227 c -0.07719,0.0136 -0.157079,0.0755 -0.248564,0.1757 -0.275289,0.30142 -1.196826,2.59058 -1.196826,2.97295 0,0.31453 0.426103,0.21946 0.558106,-0.12454 0.0741,-0.19309 0.394523,-0.31781 0.817521,-0.31781 0.422999,0 0.743421,0.12472 0.817521,0.31781 0.06701,0.17462 0.277971,0.31729 0.468705,0.31729 0.245049,0 0.303659,-0.10877 0.199988,-0.37052 -0.08069,-0.20373 -0.341076,-0.89398 -0.578259,-1.53427 -0.401978,-1.08516 -0.606628,-1.47743 -0.838192,-1.43661 z m -14.40894,0.002 c -0.265583,0.0963 -0.589236,0.68646 -0.973584,1.77405 -0.251069,0.71045 -0.456302,1.35346 -0.456302,1.42886 0,0.27734 0.593682,0.1269 0.711584,-0.18035 0.0716,-0.18659 0.388985,-0.31781 0.769979,-0.31781 0.380994,0 0.698379,0.13122 0.769979,0.31781 0.103758,0.27037 0.711584,0.47253 0.711584,0.23668 0,-0.24299 -1.119808,-3.02005 -1.286743,-3.19102 -0.07569,-0.0775 -0.157969,-0.10033 -0.246497,-0.0682 z m -12.171866,0.006 c -0.197263,-0.0658 -0.264584,0.35139 -0.264584,1.64021 0,1.28881 0.06732,1.70653 0.264584,1.64073 0.179593,-0.0599 0.264583,-0.5871 0.264583,-1.64073 0,-1.05363 -0.08499,-1.58031 -0.264583,-1.64021 z m 22.900927,0.031 c -0.851639,-0.21375 -1.469677,0.5182 -1.469677,1.73995 0,0.75912 0.106752,1.05175 0.499711,1.36994 0.64506,0.52234 0.789371,0.51029 1.4149,-0.11524 0.871267,-0.87127 0.594452,-2.73378 -0.444934,-2.99465 z m -14.602726,0.55087 c 0.357476,0 0.610073,0.75897 0.503329,1.51309 -0.107891,0.76227 -0.936781,0.7955 -1.080555,0.0434 -0.141172,-0.7385 0.161994,-1.55649 0.577226,-1.55649 z m 14.347962,0.0661 c 0.345928,0.0174 0.599903,0.4962 0.542085,1.18597 -0.04923,0.58727 -0.165474,0.77309 -0.513147,0.82269 -0.717277,0.10235 -1.025352,-1.34178 -0.397391,-1.86294 0.12772,-0.10599 0.253143,-0.15152 0.368453,-0.14572 z m -6.340182,0.17466 c -0.683726,-0.0578 -1.332142,0.44867 -1.327567,1.22112 0.0038,0.64629 0.168444,0.92886 0.714685,1.22731 0.463329,0.25316 1.07158,0.13944 1.405599,-0.26303 0.386066,-0.46518 0.314902,-1.61064 -0.11989,-1.92857 -0.212849,-0.15563 -0.444918,-0.23755 -0.672827,-0.25683 z m -14.453898,0.18242 c -0.799629,0 -1.058333,0.0779 -1.058333,0.31781 0,0.2399 0.258704,0.31729 1.058333,0.31729 0.79963,0 1.058333,-0.0774 1.058333,-0.31729 0,-0.2399 -0.258703,-0.31781 -1.058333,-0.31781 z m 10.222115,0.0744 c 0.03837,-0.0138 0.09114,-0.004 0.149345,0.0315 0.116417,0.0719 0.211873,0.31561 0.211873,0.54157 0,0.23624 -0.14496,0.41082 -0.340547,0.41082 -0.223207,0 -0.295667,-0.11516 -0.211357,-0.33486 0.07067,-0.18415 0.128158,-0.4278 0.128158,-0.54157 0,-0.0568 0.02416,-0.0937 0.06253,-0.10749 z m 14.398604,0.0176 c 0.04723,-0.0106 0.09915,0.0424 0.170533,0.15503 0.09843,0.15528 0.180101,0.40122 0.181901,0.54674 0.0018,0.14552 -0.139568,0.26458 -0.314193,0.26458 -0.344766,0 -0.392569,-0.1934 -0.182418,-0.74104 0.05396,-0.1406 0.09695,-0.21476 0.144177,-0.22531 z m -10.256738,0.33177 c 0.454696,0 0.714926,0.46831 0.529167,0.95239 -0.06701,0.17462 -0.305136,0.3173 -0.529167,0.3173 -0.454697,0 -0.714926,-0.46832 -0.529167,-0.9524 0.06701,-0.17463 0.305135,-0.31729 0.529167,-0.31729 z m -14.336076,0.57154 c -1.048689,0.0483 -1.321997,0.20544 -0.868681,0.50023 0.483557,0.31446 1.793173,0.14996 1.793173,-0.22531 0,-0.24026 -0.224923,-0.30712 -0.924492,-0.27492 z m 65.543799,0.12247 c -0.23992,0.0811 -0.59014,0.39851 -0.59014,0.60152 0,0.10215 0.0833,0.18551 0.18551,0.18551 0.27067,0 0.7444,-0.62245 0.59067,-0.77618 -0.0384,-0.0384 -0.10607,-0.0379 -0.18604,-0.0109 z m 12.59665,0.25012 c -0.16016,-0.006 -0.31658,0.0229 -0.44959,0.0941 -1.14896,0.61491 -1.43173,2.03162 -0.57619,2.88716 0.28575,0.28575 0.67284,0.51935 0.86041,0.51935 0.53543,0 1.16014,-0.40664 1.16014,-0.75551 0,-0.25391 -0.0866,-0.2714 -0.4315,-0.0868 -0.60765,0.3252 -1.23661,0.0641 -1.39836,-0.58032 -0.27316,-1.08831 0.7324,-1.681 1.73633,-1.0232 0.40341,0.26433 0.51676,0.52194 0.51676,1.17306 0,0.63188 0.10816,0.89253 0.44597,1.07332 0.59376,0.3178 1.141,-0.1314 0.55965,-0.45941 -0.47003,-0.26521 -0.51364,-1.45779 -0.0532,-1.45779 0.43795,0 0.39748,-0.2612 -0.10801,-0.69401 -0.53088,-0.45443 -0.62397,-0.45367 -0.97306,0.006 -0.24191,0.31877 -0.28184,0.32361 -0.28784,0.0356 -0.008,-0.39239 -0.52103,-0.71501 -1.00149,-0.73173 z m -18.04541,0.032 c -0.49603,0.0358 -0.98792,0.38281 -1.29191,0.95084 -0.33077,0.61804 -0.0652,1.80463 0.49092,2.19418 0.25409,0.17797 0.58984,0.3235 0.74621,0.3235 0.48142,0 1.10329,-0.42173 1.10329,-0.74828 0,-0.36771 -0.24772,-0.40083 -0.57154,-0.077 -0.34888,0.34887 -1.10351,0.0186 -1.24488,-0.54466 -0.0684,-0.27244 -0.012,-0.70566 0.12557,-0.96274 0.20611,-0.38512 0.37697,-0.44718 0.97048,-0.35088 0.89494,0.14523 1.01684,-0.38894 0.16278,-0.71365 -0.15945,-0.0606 -0.32558,-0.0833 -0.49092,-0.0713 z m -2.65565,0.29352 c -0.17462,0 -0.3173,0.14266 -0.3173,0.31729 0,0.17462 0.14268,0.31729 0.3173,0.31729 0.17463,0 0.31729,-0.14267 0.31729,-0.31729 0,-0.17463 -0.14266,-0.31729 -0.31729,-0.31729 z m 12.06179,0.0341 c -0.20885,0.11918 -0.25064,0.6238 -0.15761,1.5534 0.0599,0.59905 0.24998,1.17314 0.43822,1.32291 0.41159,0.32742 0.6077,0.3339 0.7984,0.0253 0.0814,-0.13174 -0.008,-0.32722 -0.19947,-0.43409 -0.45906,-0.2569 -0.44431,-1.15592 0.0232,-1.41903 0.34421,-0.1937 0.33721,-0.23926 -0.0971,-0.64544 -0.21724,-0.20315 -0.39604,-0.33598 -0.54002,-0.39532 -0.10799,-0.0445 -0.196,-0.0475 -0.26562,-0.008 z m 2.66341,0.38913 c -1.19028,0 -1.77742,1.74771 -0.81391,2.42259 0.25874,0.18122 0.57068,0.32918 0.6935,0.32918 0.12282,0 0.43527,-0.14796 0.69401,-0.32918 0.8527,-0.59726 0.42055,-2.42259 -0.5736,-2.42259 z m 10.11307,0 c -1.09537,0 -1.66344,1.7946 -0.76687,2.42259 0.60606,0.4245 0.85873,0.41502 1.43763,-0.0537 0.8488,-0.68731 0.3727,-2.36884 -0.67076,-2.36884 z m -7.99641,0.0506 c -0.11927,0.0271 -0.23724,0.0825 -0.3421,0.1695 -0.47218,0.39188 -0.36564,1.0323 0.2155,1.29708 0.59664,0.27185 0.49771,0.68354 -0.11731,0.48834 -0.45893,-0.14566 -0.59161,0.42436 -0.14108,0.60616 1.11254,0.44892 1.98308,-0.88613 0.89969,-1.37976 -0.63973,-0.29147 -0.70929,-0.68245 -0.0863,-0.48472 0.35209,0.11175 0.42744,0.0608 0.36794,-0.24805 -0.0683,-0.3549 -0.43853,-0.52993 -0.79634,-0.44855 z m -12.38581,0.0258 c -0.17566,-0.0683 -0.32866,0.41054 -0.32866,1.19579 0,0.76244 0.0977,1.09217 0.37052,1.2516 0.20373,0.11935 0.49712,0.17138 0.65216,0.11628 0.15504,-0.055 0.46954,-0.0997 0.69866,-0.0997 0.3716,0 0.40955,-0.12615 0.35295,-1.16685 -0.072,-1.32321 -0.45153,-1.57952 -0.55552,-0.37517 -0.10645,1.23267 -0.88366,1.47582 -0.88366,0.27646 0,-0.33286 -0.0578,-0.75496 -0.12816,-0.93844 -0.0588,-0.15321 -0.11973,-0.23715 -0.17829,-0.25993 z m 2.98535,0.002 c -0.31151,0.0465 -0.56224,0.21239 -0.56224,0.46974 0,0.23087 0.12473,0.28798 0.42168,0.19378 0.23179,-0.0735 0.53127,-0.0652 0.66611,0.0181 0.14813,0.0916 -0.0381,0.24343 -0.47129,0.38396 -0.82988,0.26919 -1.06449,0.91186 -0.48679,1.33428 0.21304,0.15574 0.51702,0.2334 0.67541,0.1726 0.15838,-0.0608 0.4707,-0.11007 0.69402,-0.11007 0.58726,0 0.58081,-1.68127 -0.009,-2.21485 -0.24413,-0.22094 -0.61659,-0.29399 -0.92811,-0.24753 z m 19.69544,0.0248 c -0.12383,0.0131 -0.25261,0.0512 -0.3762,0.11731 -0.57472,0.30758 -0.5129,1.01135 0.1142,1.29708 0.59664,0.27185 0.49823,0.68354 -0.11679,0.48834 -0.45893,-0.14566 -0.5916,0.42436 -0.14107,0.60616 1.142,0.4608 2.01176,-0.87306 0.89968,-1.37976 -0.62863,-0.28642 -0.71443,-0.68405 -0.10593,-0.49092 0.29142,0.0925 0.42323,0.0381 0.42323,-0.17467 0,-0.318 -0.32563,-0.50275 -0.69712,-0.46354 z m -17.13539,0.031 -0.79375,0.13332 v 1.10123 c 0,0.60566 0.061,1.16222 0.1354,1.23662 0.28214,0.28214 0.49919,-0.1201 0.49919,-0.92398 0,-0.45879 0.0954,-0.83406 0.21187,-0.83406 0.11641,0 0.28322,-0.003 0.37052,-0.007 0.0873,-0.004 0.20639,0.35333 0.26459,0.79375 0.14149,1.07066 0.71528,1.10206 0.80408,0.0439 0.0949,-1.13184 -0.46858,-1.71537 -1.4919,-1.54357 z m -9.90585,0.50126 c -0.35669,0 -1.25987,1.08435 -1.25987,1.51257 0,0.21583 0.19793,0.59016 0.43976,0.83199 0.24184,0.2418 0.58295,0.38501 0.7581,0.31781 0.17514,-0.0672 0.40624,-0.12247 0.51314,-0.12247 0.10685,0 0.19431,-0.14879 0.19431,-0.33073 0,-0.1883 -0.15968,-0.31441 -0.37052,-0.29301 -0.71524,0.0728 -0.89969,-0.0146 -0.89969,-0.42684 0,-0.22874 0.19039,-0.51773 0.42323,-0.64234 0.44152,-0.2363 0.58681,-0.84698 0.20154,-0.84698 z m 24.47396,0.0703 c 0.18365,-0.0705 0.47881,0.0168 0.65577,0.19379 0.25428,0.25426 0.27165,0.41594 0.0822,0.76998 -0.2449,0.45761 -0.34327,0.49467 -0.80719,0.30747 -0.37957,-0.15315 -0.32694,-1.11921 0.0693,-1.27124 z m -9.96167,0.0357 c 0.50173,0 0.71666,0.91339 0.28009,1.19011 -0.40775,0.25846 -0.59769,0.22727 -0.73071,-0.11938 -0.20748,-0.54068 0.0155,-1.07073 0.45062,-1.07073 z m -6.89467,0.95239 c 0.23971,0 0.43615,0.0375 0.43615,0.0832 0,0.20084 -0.63377,0.30213 -0.74672,0.11938 -0.0688,-0.11132 0.0709,-0.20258 0.31057,-0.20258 z m 21.07365,0.21136 c -0.31882,0 -0.43539,0.44673 -0.18242,0.6997 0.19754,0.19754 0.49971,-0.0407 0.49971,-0.39429 0,-0.16775 -0.14267,-0.30541 -0.31729,-0.30541 z m -14.59704,2.96364 c -0.21768,0 -0.32556,0.20209 -0.32556,0.60875 0,0.51104 -0.0865,0.60823 -0.53951,0.60823 -1.01238,0 -1.52368,1.40951 -0.8015,2.20814 0.2506,0.27689 0.57149,0.36712 1.11105,0.31212 l 0.75912,-0.077 0.061,-1.82987 c 0.0512,-1.53264 0.008,-1.83038 -0.26458,-1.83038 z m 6.21719,0.0362 c -0.69476,0.10183 -0.77635,0.59893 -0.0982,0.59893 0.75204,0 0.95377,0.59455 0.36381,1.07228 -0.25225,0.20426 -0.45837,0.5229 -0.45837,0.70797 0,0.46856 0.15663,0.42418 0.86558,-0.24495 0.3388,-0.31977 0.61598,-0.7815 0.61598,-1.02577 0,-0.59463 -0.69823,-1.19506 -1.28881,-1.10846 z m -21.35942,0.38705 v 1.69344 1.69344 h 0.82321 c 1.05299,0 1.69523,-0.52593 1.85415,-1.51877 0.17311,-1.08142 -0.59347,-1.86811 -1.82108,-1.86811 z m 7.72563,0 c -0.32732,0 -0.42028,0.24998 -0.1819,0.48835 0.16911,0.16911 0.49971,-0.022 0.49971,-0.28887 0,-0.10957 -0.14318,-0.19948 -0.31781,-0.19948 z m -6.55723,0.63511 c 0.71391,0 1.11982,0.83105 0.77515,1.5875 -0.16438,0.36079 -0.41127,0.52916 -0.77515,0.52916 -0.4993,0 -0.5333,-0.0682 -0.5333,-1.05833 0,-0.99013 0.034,-1.05833 0.5333,-1.05833 z m 4.5465,0.21187 v 1.28778 c 0,0.9354 0.0724,1.26364 0.26458,1.20044 0.14552,-0.0479 0.29346,-0.47452 0.32866,-0.94826 0.0479,-0.64388 0.16831,-0.88885 0.47646,-0.96945 0.6869,-0.17963 0.46166,-0.57051 -0.32866,-0.57051 z m 11.40292,0 c -1.11938,0 -1.66016,1.30453 -0.89245,2.15284 0.73982,0.8175 1.97765,0.20448 1.97765,-0.97927 0,-0.81812 -0.32853,-1.17357 -1.0852,-1.17357 z m -12.85296,0.004 c -0.35153,-0.0187 -0.72827,0.0875 -0.96894,0.32815 -0.43689,0.4369 -0.42381,1.3329 0.0269,1.8309 0.23338,0.25787 0.58054,0.37534 0.98909,0.33434 0.8791,-0.0882 0.95843,-0.54747 0.10904,-0.63097 -0.97148,-0.0955 -1.06566,-0.59686 -0.11214,-0.59686 0.8686,0 1.09346,-0.24415 0.7736,-0.84181 -0.13964,-0.26091 -0.466,-0.40503 -0.81752,-0.42375 z m 6.1097,10e-4 c -0.14855,0.0485 -0.37341,0.32219 -0.56741,0.78651 l -0.33073,0.7922 -0.31574,-0.7922 c -0.33,-0.82736 -0.69401,-1.0519 -0.69401,-0.42839 0,0.19983 0.15579,0.77153 0.34623,1.2702 0.19044,0.49866 0.4812,0.90641 0.64595,0.90641 0.29701,0 0.75187,-0.87185 1.02733,-1.96939 0.10962,-0.43676 0.0369,-0.61387 -0.11162,-0.56534 z m 1.26091,0.032 c -0.95759,0.0936 -1.09875,0.59526 -0.17054,0.60616 l 0.7059,0.008 -0.68781,0.29869 c -0.49985,0.21726 -0.68833,0.43676 -0.68833,0.80305 0,0.27726 0.0624,0.56676 0.13849,0.64286 0.0761,0.0761 0.50459,0.12395 0.9524,0.10645 l 0.8139,-0.032 -0.003,-0.97048 c -0.004,-1.27595 -0.20111,-1.54696 -1.06143,-1.46296 z m 7.78505,0.002 c -0.57498,0.0554 -0.68833,0.15353 -0.68833,0.59583 0,0.34574 0.16529,0.60142 0.47646,0.73794 0.64157,0.28146 0.60599,0.606 -0.0527,0.48008 -0.51013,-0.0975 -0.72123,0.21258 -0.37828,0.55552 0.26735,0.26649 1.17474,0.0374 1.41491,-0.3576 0.19156,-0.31507 0.12753,-0.4752 -0.36071,-0.89969 -0.54005,-0.46954 -0.55433,-0.51625 -0.15864,-0.51625 0.25351,0 0.43511,-0.13845 0.43511,-0.33124 0,-0.24579 -0.17677,-0.31389 -0.68781,-0.26459 z m -11.64167,0.0124 c -0.27458,0.0904 -0.48152,1.68188 -0.28473,2.1947 0.27177,0.70823 0.54932,0.20606 0.54932,-0.99426 0,-0.93541 -0.0724,-1.26364 -0.26459,-1.20044 z m 6.62182,0.58342 c 0.35926,0 0.43144,0.11087 0.37724,0.58033 -0.0751,0.65096 -0.73164,0.92245 -0.93689,0.38757 -0.19646,-0.51196 0.0671,-0.9679 0.55965,-0.9679 z m 2.6386,0 c 0.44686,0 0.52917,0.0984 0.52917,0.63459 0,0.47464 -0.098,0.6351 -0.38809,0.6351 -0.51404,0 -0.67025,-0.18098 -0.67025,-0.77618 0,-0.38571 0.11591,-0.49351 0.52917,-0.49351 z m -5.29167,0.84646 c 0.17463,0 0.3173,0.0955 0.3173,0.21188 0,0.11647 -0.14267,0.21135 -0.3173,0.21135 -0.17462,0 -0.31781,-0.0949 -0.31781,-0.21135 0,-0.11647 0.14319,-0.21188 0.31781,-0.21188 z m 9.73894,0.36897 c -0.11662,0.009 -0.23482,0.13082 -0.28267,0.36071 -0.0399,0.19176 0.0767,0.32866 0.28009,0.32866 0.218,0 0.3221,-0.13883 0.2775,-0.37052 -0.043,-0.2231 -0.15829,-0.32757 -0.27492,-0.31885 z M 10.334253,176.4993 c -0.145521,0.0588 -0.02646,0.10697 0.264583,0.10697 0.291044,0 0.410104,-0.0483 0.264584,-0.10697 -0.145521,-0.0587 -0.383646,-0.0587 -0.529167,0 z m -4.2348837,1.07332 c -0.053276,-0.0533 -0.2175749,0.0484 -0.3648356,0.22583 -0.1669518,0.20117 -0.1827295,0.32298 -0.042375,0.32298 0.2558107,0 0.5540006,-0.40202 0.4072106,-0.54881 z m 7.8734217,0.12506 c -0.12329,0 -0.164968,0.0955 -0.09302,0.21187 0.07195,0.11647 0.172419,0.21188 0.223759,0.21188 0.05134,0 0.09353,-0.0955 0.09353,-0.21188 0,-0.11646 -0.100988,-0.21187 -0.224275,-0.21187 z m -8.7591557,0.6351 c -0.051338,0 -0.1523268,0.0955 -0.2242758,0.21188 -0.07195,0.11647 -0.029753,0.21135 0.093534,0.21135 0.1232872,0 0.2242757,-0.0949 0.2242757,-0.21135 0,-0.11646 -0.042196,-0.21188 -0.093534,-0.21188 z M 136.7994,178.8511 c -0.17037,0.0645 -0.23999,0.187 -0.14418,0.34261 0.15467,0.25058 0.74601,0.24876 1.14412,-0.003 0.241,-0.15247 0.18691,-0.2235 -0.2527,-0.33383 -0.30554,-0.0767 -0.57665,-0.0703 -0.74724,-0.006 z m 3.14555,0.96997 c 0.82928,-0.0101 0.89775,0.23144 0.1881,0.663 -0.35164,0.21385 -0.83219,0.38861 -1.06764,0.38861 -0.41678,0 -0.41779,-0.0138 -0.0475,-0.52245 0.23109,-0.31752 0.5948,-0.52516 0.92708,-0.52916 z M 3.8845174,180.31819 c -0.022255,0.0223 -0.037296,0.0963 -0.042375,0.21963 -0.00919,0.22311 0.040769,0.3478 0.1111044,0.2775 0.070335,-0.0703 0.07768,-0.25287 0.016536,-0.40566 -0.033785,-0.0844 -0.063011,-0.11372 -0.085266,-0.0915 z m 52.4195396,0.2465 c -0.234164,0.14472 -0.267119,2.4951 -0.03824,2.72696 0.155426,0.15745 0.441924,-2.36712 0.304891,-2.68665 -0.03826,-0.0892 -0.158277,-0.10731 -0.26665,-0.0403 z m 67.418103,0.94309 c 0.86333,0 1.14403,0.31234 0.56121,0.62426 -0.49384,0.26463 -0.4542,0.2647 -0.91932,-0.006 -0.59018,-0.34375 -0.43115,-0.61805 0.35811,-0.61805 z m -52.143067,0.007 c -11.763118,0.007 -11.989181,0.015 -12.501562,0.44132 l -0.521415,0.43408 -0.04599,9.04182 c -0.02523,4.97293 0.01932,9.14141 0.0987,9.26352 0.07938,0.12211 0.406469,0.30761 0.727087,0.41238 0.320618,0.10479 2.939993,0.18687 5.820833,0.18087 5.787038,-0.011 6.119215,-0.0256 5.890597,-0.25477 -0.0871,-0.0873 -2.745822,-0.20638 -5.908683,-0.26458 l -5.750554,-0.10594 -0.163814,-2.11667 c -0.225753,-2.92469 -0.295033,-15.81487 -0.08682,-16.13958 0.241495,-0.37663 23.855773,-0.38667 24.232112,-0.0103 0.18835,0.18835 0.254248,2.26677 0.254248,8.04292 0,4.28413 0.08049,7.7897 0.178801,7.7897 0.245727,0 0.454339,-5.03864 0.455269,-10.99003 6.74e-4,-4.31667 -0.04431,-5.00784 -0.349333,-5.34489 -0.331656,-0.36644 -0.987935,-0.38682 -12.32948,-0.37982 z m 74.593377,1.05265 c 0.3975,0.0583 0.84777,0.23091 1.0604,0.4749 0.54862,0.62951 0.81535,3.28167 0.37776,3.75688 -0.2764,0.30017 -1.28421,0.39805 -4.45503,0.43305 -0.49437,0.005 -1.19674,0.13566 -1.56114,0.28887 -0.37382,0.15719 -1.05788,0.23392 -1.56942,0.17622 -0.60727,-0.0684 -1.05708,0.003 -1.36219,0.21704 -0.36211,0.25368 -0.60523,0.27276 -1.18752,0.0941 -0.58776,-0.18039 -0.87942,-0.15472 -1.47588,0.12971 v 5.1e-4 c -0.8691,0.41444 -0.75474,0.40056 -1.15238,0.13953 -0.24996,-0.16409 -0.26044,-0.2454 -0.0486,-0.38241 0.18886,-0.12213 0.25431,-0.69056 0.21911,-1.90531 -0.0429,-1.47845 -0.10363,-1.73064 -0.41548,-1.73064 -0.20082,0 -0.43228,-0.1088 -0.51418,-0.24133 -0.21248,-0.3438 1.40178,-0.0227 1.834,0.36484 0.46933,0.42077 2.10013,0.4027 2.10013,-0.0233 0,-0.18893 -0.26183,-0.37517 -0.63149,-0.44907 -0.34736,-0.0695 -0.58342,-0.20442 -0.52452,-0.29972 0.1117,-0.18074 1.08084,0.10021 1.99782,0.57878 0.68969,0.35962 1.58216,0.35826 1.88205,-0.003 0.27964,-0.33694 0.10669,-0.56276 -0.43098,-0.56276 -0.21343,0 -0.38809,-0.10617 -0.38809,-0.23616 0,-0.25844 0.25314,-0.20625 1.70997,0.35243 0.59826,0.22943 1.18497,0.31715 1.53428,0.22945 0.71381,-0.17915 0.7264,-0.47116 0.0279,-0.64648 -0.29581,-0.0742 -0.48581,-0.21832 -0.42271,-0.32039 0.13988,-0.22633 0.9167,-0.0504 1.48415,0.33641 0.4389,0.29917 1.3289,0.37281 1.89239,0.15658 0.4308,-0.16531 0.22076,-0.50694 -0.31161,-0.50694 -0.22596,0 -0.41083,-0.095 -0.41083,-0.21136 0,-0.21278 0.34457,-0.26866 0.74207,-0.21032 z m -1.7756,1.69188 c -0.11641,0 -0.2701,0.0955 -0.3421,0.21188 -0.072,0.11647 -0.0358,0.21135 0.0806,0.21135 0.11642,0 0.27061,-0.0949 0.34261,-0.21135 0.072,-0.11647 0.0353,-0.21188 -0.0811,-0.21188 z m 0.87488,0.0656 c -0.20373,0.0532 -0.0369,0.0971 0.37052,0.0971 0.40742,0 0.57374,-0.0439 0.37001,-0.0971 -0.20373,-0.0532 -0.5368,-0.0532 -0.74053,0 z m -13.86427,0.006 c 0.14552,-0.0587 0.38365,-0.0587 0.52917,0 0.14552,0.0588 0.0265,0.10697 -0.26458,0.10697 -0.29108,0 -0.41011,-0.0483 -0.26459,-0.10697 z m 1.23714,0.14676 c 0.24324,-0.007 0.93224,0.66575 0.93224,0.91002 0,0.0782 -0.43291,0.14211 -0.96222,0.14211 h -0.96221 l 0.38034,-0.52296 c 0.20916,-0.28739 0.48437,-0.52517 0.61185,-0.52917 z m 5.95932,0.47904 c -0.26193,0.0504 -0.0474,0.092 0.47646,0.092 0.52385,0 0.7384,-0.0416 0.47646,-0.092 -0.26193,-0.0505 -0.69098,-0.0505 -0.95292,0 z m 7.80883,0.11162 c -0.57021,0.0239 -1.33173,0.0812 -2.14664,0.1664 -1.62984,0.17031 -4.18299,0.43559 -5.67407,0.58963 -2.63838,0.27255 -3.30624,0.48526 -3.01532,0.95704 0.17525,0.28406 -0.0685,0.29041 3.08043,-0.0806 2.48216,-0.29245 5.35238,-0.62777 7.67705,-0.8971 1.01971,-0.11813 1.4132,-0.37405 1.07797,-0.70074 -0.0502,-0.0489 -0.42921,-0.0585 -0.99942,-0.0346 z m -131.95112,0.0413 c 0.960437,0.002 1.889331,0.0933 2.063956,0.20361 0.266,0.16796 0.317294,0.93118 0.317294,4.70617 v 4.50618 l -3.823023,0.0574 c -2.10266,0.0316 -3.8885999,-0.008 -3.9687499,-0.0884 -0.233911,-0.23391 -0.1676717,-3.44849 0.080615,-3.91242 0.162047,-0.3027 0.1597215,-0.50307 -0.00775,-0.70487 -0.147068,-0.1772 -0.2111761,-1.0964 -0.1731161,-2.47375 0.057768,-2.09041 0.082141,-2.1948 0.5364014,-2.2593 0.40005,-0.0568 0.4764567,0.0306 0.4764567,0.54674 0,0.76416 0.1874859,0.96852 0.5854939,0.63821 0.244603,-0.20301 0.360883,-0.1808 0.572058,0.108 0.39021,0.53366 1.038533,0.47818 0.893486,-0.0765 -0.07131,-0.27269 0.03982,-0.59379 0.293005,-0.84698 0.337155,-0.33718 0.709515,-0.40711 2.153874,-0.40411 z m 116.26474,0.20826 c 0.38963,0 0.45156,0.17308 0.62787,1.74614 0.13152,1.17348 0.15897,1.21698 0.75654,1.21698 0.4098,0 0.6196,0.10788 0.6196,0.31781 0,0.35589 -0.53893,0.43297 -0.74104,0.10594 -0.072,-0.11646 -0.35542,-0.21187 -0.62994,-0.21187 -0.42824,0 -0.53147,-0.15172 -0.72812,-1.06867 -0.32118,-1.49746 -0.29355,-2.10633 0.0951,-2.10633 z m 5.9862,0.0672 c -0.16885,0.0676 -0.11893,0.11754 0.12764,0.12764 0.22312,0.009 0.34832,-0.0408 0.27802,-0.11111 -0.0703,-0.0703 -0.25286,-0.0776 -0.40566,-0.0165 z m -129.687179,0.0387 c 0.1432708,-0.14214 0.1937575,0.53539 0.1545125,2.06344 -0.032142,1.25148 -0.079978,2.27583 -0.1064534,2.27583 -0.3836971,0 -0.4275625,-3.96275 -0.048059,-4.33927 z m -3.1739665,0.0899 c -0.041809,-0.009 -0.088679,0.008 -0.1369425,0.0563 -0.060949,0.061 -0.040104,0.29069 0.046509,0.51108 0.1499037,0.38141 0.1615096,0.38232 0.2356446,0.0139 0.060669,-0.30146 -0.019785,-0.55498 -0.1452108,-0.58136 z m 187.7146355,0.61133 c 3.56856,-0.004 7.13542,0.10003 7.38147,0.31575 0.19374,0.16986 0.57063,0.37542 0.83767,0.45682 0.45083,0.13748 0.48093,0.24743 0.42323,1.53479 l -0.062,1.38647 -8.38864,0.0677 c -4.61376,0.0373 -8.44789,0.009 -8.51989,-0.063 -0.072,-0.072 -0.13074,-0.73751 -0.13074,-1.47847 0,-1.09189 0.0703,-1.37199 0.37052,-1.47846 0.20373,-0.0722 0.51659,-0.25619 0.69556,-0.40876 0.25373,-0.21632 3.82428,-0.32865 7.39283,-0.3328 z m 18.42575,0.0289 c 6.92958,0.016 8.18099,0.0658 8.38089,0.33228 0.12926,0.17229 0.34797,0.31316 0.48576,0.31316 0.17513,0 0.2316,0.45011 0.1881,1.49603 l -0.062,1.49604 -8.85476,0.0388 c -4.87006,0.0212 -8.89411,-0.001 -8.94261,-0.0496 -0.0486,-0.0485 -0.0884,-0.68118 -0.0884,-1.40559 0,-0.94326 0.10607,-1.44778 0.37362,-1.77819 0.37264,-0.46024 0.39407,-0.46167 8.51937,-0.44287 z m -53.55487,0.0109 12.43542,0.007 c 14.5708,0.008 13.45135,-0.18131 13.34492,2.25723 l -0.0625,1.4397 -8.10131,-0.031 c -6.46328,-0.0248 -8.17121,-0.0888 -8.44651,-0.3173 -0.51815,-0.43007 -2.1664,-0.37316 -2.42208,0.0837 v 5.2e-4 c -0.11402,0.20373 -0.27403,0.34919 -0.35553,0.32349 -0.0815,-0.0258 -1.55294,-0.076 -3.27009,-0.11162 l -3.12229,-0.0646 v -1.79369 z M 16.105477,186.6961 c -0.118319,-0.0731 -0.214974,0.0154 -0.214974,0.19689 0,0.3718 0.127059,0.42639 0.308508,0.1328 0.06698,-0.10838 0.02478,-0.25659 -0.09353,-0.32969 z m 5.470984,1.82676 c -0.340574,0.0158 -0.698569,0.13404 -0.766362,0.34055 -0.05863,0.17859 0.159804,0.26458 0.671794,0.26458 0.546748,0 0.75861,-0.0922 0.75861,-0.33073 0,-0.0363 -0.05396,-0.0496 -0.07286,-0.0786 h -0.290421 v -0.16019 c -0.09699,-0.0173 -0.189408,-0.0408 -0.300757,-0.0357 z m 4.531506,0.19585 c -0.103449,0.0433 -0.198825,0.0916 -0.221175,0.15865 -0.06846,0.20567 0.122022,0.26127 0.72347,0.21187 0.448851,-0.0369 0.792361,-0.16264 0.763261,-0.27905 -0.01073,-0.0429 -0.08644,-0.0622 -0.136426,-0.0915 z m 2.391069,0 c -0.04426,0.06 -0.05879,0.12581 -0.0155,0.19586 0.197333,0.31932 1.431423,0.27163 1.32395,-0.0512 -0.02089,-0.0627 -0.129359,-0.0893 -0.195337,-0.1447 z m -15.677596,1.05214 -0.846977,0.0992 c -0.465667,0.0548 -1.06098,0.10132 -1.322917,0.10232 -0.261938,10e-4 -0.47594,0.0975 -0.47594,0.21394 0,0.29017 0.782429,0.23862 1.798857,-0.11833 z m -5.8208337,0.62683 c 0.1262577,0 0.2113566,0.81181 0.2113566,2.01125 0,1.19944 -0.085099,2.01073 -0.2113566,2.01073 -0.1262577,0 -0.2118734,-0.81129 -0.2118734,-2.01073 0,-1.19944 0.085616,-2.01125 0.2118734,-2.01125 z m 176.1065637,0.42323 h 8.5726 8.57209 v 1.05833 1.05834 h -1.66657 c -0.9167,0 -2.03599,-0.12626 -2.48718,-0.28061 -0.67754,-0.23164 -0.91224,-0.23177 -1.34927,-0.003 -0.39693,0.20813 -1.9177,0.2786 -6.08542,0.2806 l -5.55625,0.003 v -1.05834 z m 17.99167,0 h 8.99583 8.99583 v 2.65152 2.651 l -0.58239,0.22014 c -0.73609,0.27888 -1.52493,1.00428 -1.7632,1.62109 -0.13129,0.33989 -0.35735,0.47646 -0.7891,0.47646 -0.33273,0 -0.66861,-0.0635 -0.74621,-0.14108 -0.0776,-0.0776 -0.14107,-0.89099 -0.14107,-1.80764 0,-1.35875 0.0821,-1.77752 0.44286,-2.2655 0.3848,-0.52047 0.40572,-0.65724 0.16072,-1.04954 -0.35073,-0.56161 -1.43597,-0.78305 -2.32286,-0.47388 -0.42772,0.14913 -2.77577,0.2341 -6.4611,0.2341 h -5.78931 v -1.05834 z m -129.548685,5.2e-4 c -2.770224,0 -5.18762,0.0575 -5.371766,0.12815 -0.22459,0.0862 -0.334863,0.39513 -0.334863,0.93845 0,0.72625 0.06047,0.81685 0.582394,0.87695 0.320146,0.0368 2.820459,0.0194 5.55625,-0.0388 l 4.973856,-0.10594 0.06821,-0.59479 c 0.135259,-1.17958 0.02335,-1.20406 -5.474084,-1.20406 z m 110.710035,0 v 1.07952 1.07952 l -1.9575,-0.13178 c -2.28952,-0.15459 -2.33012,-0.15446 -6.19084,0.003 -1.62942,0.0665 -3.08177,0.21995 -3.22771,0.34107 -0.20674,0.17157 -0.26561,2.76277 -0.26561,11.73003 l 5.1e-4,11.51093 h -2.96364 -2.96313 v -2.22261 -2.2226 h 1.90945 1.90944 l -0.0574,-4.28604 -0.0574,-4.28656 -1.69344,-0.061 -1.69343,-0.0605 0.002,-5.91127 c 0.002,-5.65163 0.0211,-5.92532 0.42375,-6.22959 0.35754,-0.27018 1.65857,-0.31905 8.62273,-0.32505 z m -125.889987,0.43615 c -0.197207,0.14211 -0.263033,1.74974 -0.263033,5.4901 0,4.75074 0.04321,5.50354 0.317293,5.50354 0.27355,0 0.31781,-0.71555 0.31781,-5.16868 0,-2.84269 -0.05801,-5.31887 -0.128674,-5.50302 -0.09733,-0.25363 -0.177661,-0.36932 -0.243396,-0.32194 z m -34.85317,0.62218 c -0.546749,0 -0.758093,0.0922 -0.758093,0.33073 0,0.24449 0.175014,0.31358 0.671276,0.26458 0.970355,-0.0958 1.043191,-0.59531 0.08682,-0.59531 z m 67.014514,1.29088 c -0.104204,0.0241 -0.244804,0.19614 -0.390157,0.50953 -0.267387,0.5765 -0.261576,0.58709 0.227376,0.39946 0.184147,-0.0707 0.334864,-0.30879 0.334864,-0.52917 0,-0.27974 -0.06788,-0.40394 -0.172083,-0.37982 z m 92.350953,0.61391 h 1.37769 v 1.1498 c 0,0.96503 -0.068,1.17162 -0.42426,1.28468 -0.63389,0.20119 -1.70273,1.1643 -1.91668,1.72703 -0.1367,0.35955 -0.35383,0.49506 -0.79323,0.49506 -0.33273,0 -0.66861,-0.0635 -0.74621,-0.14108 -0.0776,-0.0776 -0.14108,-0.93517 -0.14108,-1.90531 0,-1.29044 0.0724,-1.76372 0.27027,-1.76372 0.14875,0 0.43369,-0.1904 0.63304,-0.42323 0.29357,-0.34284 0.62449,-0.42323 1.74046,-0.42323 z m 17.85162,0 h 1.51774 v 1.16841 c 0,1.06906 -0.049,1.19097 -0.57878,1.42885 -0.66332,0.29782 -1.14449,0.73912 -1.65364,1.51619 -0.24604,0.3755 -0.54484,0.54312 -0.96687,0.54312 h -0.6103 v -1.97818 c 0,-2.5114 0.14287,-2.67839 2.29185,-2.67839 z m -112.356447,0.21188 c -0.117788,0 -0.21394,0.37417 -0.21394,0.83199 0,0.63922 -0.0956,0.86322 -0.412378,0.96376 -0.506878,0.16088 -0.650929,0.59736 -0.557589,1.68879 0.04842,0.56621 0.21764,0.93553 0.520899,1.13688 0.247083,0.16406 0.458655,0.45333 0.470255,0.64286 0.0116,0.18953 0.08645,0.11006 0.166398,-0.17674 0.08806,-0.31586 0.350762,-0.56937 0.666626,-0.64337 0.460968,-0.10799 0.529231,-0.25097 0.586011,-1.23197 0.06232,-1.07686 0.04438,-1.11683 -0.604614,-1.34307 -0.632082,-0.22034 -0.661594,-0.27787 -0.537952,-1.05109 0.07946,-0.49687 0.04636,-0.81804 -0.08372,-0.81804 z m -15.29519,1.01286 -5.027083,0.0599 v 0.7183 c 0,0.50569 0.109585,0.74622 0.37052,0.81442 0.566053,0.14789 9.7086,0.16386 10.089823,0.0176 0.48338,-0.1855 0.454168,-1.49056 -0.03566,-1.59318 -0.203729,-0.0427 -2.632707,-0.0503 -5.397603,-0.0171 z M 6.2368286,195.802 c 0.095836,-0.007 0.1286743,0.0459 0.1286743,0.1571 0,0.15434 -0.114548,0.39515 -0.254248,0.53485 -0.3047675,0.30479 -1.0159587,0.33797 -1.0159587,0.0475 0,-0.11343 0.2858534,-0.35372 0.6351034,-0.53433 0.2516557,-0.13015 0.4105929,-0.19794 0.506429,-0.20516 z m 6.9019044,0.41651 c 0.138407,0.0855 0.211873,6.31683 0.211873,18.00407 0,11.77445 -0.07243,17.87385 -0.211873,17.87385 -0.139456,0 -0.211873,-6.14293 -0.211873,-18.00459 0,-11.94887 0.0714,-17.96013 0.211873,-17.87333 z m 187.714637,0.74104 c 0.47044,0 0.90967,0.0877 0.97617,0.19534 0.0665,0.10761 -0.58716,0.53665 -1.45262,0.95291 -0.86545,0.41627 -1.62872,0.75655 -1.69602,0.75655 -0.3224,0 -0.0525,-0.53559 0.59738,-1.18546 0.58099,-0.58099 0.88457,-0.71934 1.57509,-0.71934 z m 19.39003,0.046 c 0.58077,0.072 0.65696,0.3438 -0.0289,0.59944 -0.32715,0.12194 -1.04545,0.45523 -1.59629,0.74053 -1.25191,0.64837 -1.47729,0.65295 -1.1498,0.0217 0.47047,-0.90683 0.99846,-1.25949 2.03553,-1.35909 0.29618,-0.0285 0.5459,-0.0266 0.73949,-0.003 z m -36.83961,5.1e-4 c 0.57979,0.071 0.6792,0.33817 0.0233,0.58756 -0.30374,0.11548 -1.05707,0.44877 -1.6738,0.74053 -1.37765,0.65175 -1.43652,0.65347 -1.11466,0.0331 0.47047,-0.90683 0.99846,-1.25949 2.03553,-1.35909 0.28978,-0.0278 0.53641,-0.0257 0.72967,-0.002 z m 18.74201,1.05369 c 0.31366,-0.0617 0.4346,0.043 0.4346,0.30024 0,0.23841 -0.12904,0.30861 -0.42375,0.23151 -0.23297,-0.061 -0.36944,-0.0232 -0.30334,0.0837 0.0661,0.10693 -0.17391,0.25315 -0.5333,0.32505 -0.35939,0.0719 -0.70469,0.21333 -0.76739,0.31471 -0.0626,0.10142 -0.34075,0.18448 -0.61805,0.18448 -0.2773,0 -0.56311,0.0954 -0.63511,0.21187 -0.072,0.11647 -0.26787,0.21136 -0.43563,0.21136 -0.16775,0 -0.30489,-0.0949 -0.30489,-0.21136 0,-0.11647 0.13476,-0.21187 0.29972,-0.21187 0.16495,0 0.92849,-0.33358 1.69654,-0.74104 0.77075,-0.40889 1.27694,-0.63693 1.5906,-0.69866 z m 18.788,0.0341 c 0.0766,-0.0149 0.15608,-0.009 0.22789,0.015 0.14363,0.0477 0.25684,0.16607 0.25684,0.32763 0,0.10014 -0.71772,0.39526 -1.59526,0.65577 -0.87755,0.26052 -1.64513,0.55406 -1.70583,0.65216 -0.14875,0.24071 -0.6657,0.22627 -0.81959,-0.0227 -0.0683,-0.11053 0.21201,-0.26407 0.6227,-0.34107 0.4107,-0.0771 0.74672,-0.22468 0.74672,-0.32814 0,-0.10341 0.29139,-0.1881 0.64751,-0.1881 0.37776,0 0.59255,-0.0879 0.51625,-0.21136 -0.0719,-0.11647 0.0466,-0.21187 0.26303,-0.21187 0.21642,0 0.49934,-0.10609 0.6289,-0.23565 0.0607,-0.0606 0.13427,-0.0967 0.21084,-0.11162 z m -36.77708,0.0491 c 0.13871,0.0107 0.25319,0.042 0.31212,0.0992 0.27108,0.26326 0.0402,0.44784 -0.60719,0.48524 -0.29851,0.0173 -0.54253,0.0851 -0.54261,0.15142 -9e-5,0.0663 -0.48282,0.25185 -1.07228,0.41237 -0.58946,0.16051 -1.11898,0.36859 -1.17668,0.46199 v -5.1e-4 c -0.13291,0.21529 -0.50281,0.22281 -0.50281,0.0103 0,-0.17786 1.93588,-1.11001 2.30529,-1.11001 0.12901,0 0.23461,-0.0842 0.23461,-0.18707 0,-0.20069 0.63341,-0.355 1.04955,-0.32298 z m 18.87275,0.94723 -0.0656,0.68058 -0.0661,0.6811 -1.42833,0.0625 c -0.79364,0.0348 -1.42886,-0.0255 -1.42886,-0.13591 0,-0.2162 0.17831,-0.30189 1.86501,-0.89401 z m -17.99219,0.006 -0.0656,0.67748 -0.0656,0.67748 -1.53428,0.0196 c -0.84402,0.0107 -1.53479,-0.052 -1.53479,-0.13953 0,-0.0875 0.72034,-0.40121 1.60042,-0.69711 z m 36.54248,0.19121 c 0.19198,0 0.26754,0.19764 0.22324,0.58239 -0.0658,0.57145 -0.0949,0.58255 -1.60145,0.61805 -0.84402,0.0199 -1.53428,-0.0425 -1.53428,-0.13901 0,-0.18357 2.40857,-1.06143 2.91249,-1.06143 z m 0.7214,1.58595 c 0.16948,-0.0644 0.52228,0.27455 0.88522,0.85007 0.56186,0.89094 0.59846,1.08043 0.52916,2.73369 -0.0678,1.61647 -0.13345,1.84943 -0.73173,2.5895 -0.3616,0.44728 -0.96221,0.99146 -1.33481,1.20975 -0.82392,0.4827 -2.62005,0.60928 -3.58634,0.2527 -1.92881,-0.71178 -2.81407,-2.09641 -2.80707,-4.39095 0.004,-1.24928 0.0949,-1.63537 0.54674,-2.3182 l 0.5426,-0.81959 h 2.83704 c 1.56045,0 2.96415,-0.048 3.11919,-0.10697 z m -36.49286,0.002 0.50126,0.74104 c 0.43708,0.6457 0.50178,0.98953 0.50178,2.6789 0,1.84336 -0.0319,1.9782 -0.64751,2.75177 -0.356,0.44737 -1.06654,1.02791 -1.57923,1.28985 -1.04606,0.53444 -1.29094,0.5487 -3.01015,0.17931 -1.28459,-0.276 -2.00216,-0.79526 -2.7342,-1.97972 -0.79967,-1.2939 -0.48164,-4.47689 0.53123,-5.3175 0.13582,-0.11272 1.63968,-0.23621 3.34192,-0.27441 z m 18.08778,0.0429 0.61237,0.9834 c 0.50847,0.81692 0.61185,1.21237 0.61185,2.33578 0,1.92092 -0.70059,3.14022 -2.30736,4.01474 -1.05878,0.57626 -2.39165,0.73234 -2.98431,0.34933 -0.17463,-0.11285 -0.50768,-0.20946 -0.74052,-0.21446 -0.58081,-0.0123 -1.67652,-0.99163 -2.22106,-1.98541 -0.80461,-1.46841 -0.5046,-4.0903 0.60048,-5.24825 0.0763,-0.08 1.55375,-0.16557 3.28352,-0.19017 z m -37.62819,3.03082 c 0.58819,-0.0103 1.17351,0.0381 1.2361,0.15451 0.16538,0.30757 -0.10725,1.95802 -0.3235,1.95802 -0.28268,0 -0.67727,0.51615 -1.2578,1.64642 -0.44742,0.87112 -0.67857,1.01582 -1.84382,1.15186 -0.74914,0.0875 -1.0205,0.64333 -0.7121,1.46038 0.13978,0.36927 0.20351,0.75274 0.14211,0.85214 -0.13738,0.22229 -1.77215,0.242 -1.79885,0.0217 -0.011,-0.0873 -0.0121,-1.73007 -0.003,-3.65094 l 0.0165,-3.49281 0.87798,-0.0662 c 1.08338,-0.082 1.46021,0.21729 0.96377,0.76585 -1.20074,1.3268 0.81112,2.70442 2.08669,1.42885 0.58495,-0.58495 0.5189,-0.99036 -0.24339,-1.48983 -0.28498,-0.18673 -0.46206,-0.43079 -0.39326,-0.54209 0.0734,-0.11878 0.66444,-0.18761 1.25264,-0.19792 z m 1.17667,2.53576 c 0.0838,0 0.12442,1.07157 0.0899,2.38125 l -0.0625,2.38125 -1.3901,0.0625 c -0.86584,0.039 -1.38958,-0.0208 -1.38958,-0.15864 0,-0.12174 0.0995,-0.22118 0.22118,-0.22118 0.12171,0 0.45852,-0.23786 0.74879,-0.52813 0.43507,-0.43507 0.48769,-0.60294 0.29817,-0.95705 -0.19019,-0.35537 -0.0952,-0.64825 0.55087,-1.69499 0.42951,-0.69586 0.84938,-1.26504 0.93328,-1.26504 z m -67.576754,3.17294 c -0.523528,-0.0156 -1.033513,0.90151 -2.036568,2.73575 -0.829139,1.5162 -1.507402,2.80447 -1.507402,2.86287 0,0.0585 0.30946,0.18652 0.687814,0.28422 l 0.687813,0.17725 0.105937,2.80035 c 0.08209,2.17183 0.17696,2.8458 0.42323,3.00447 0.17462,0.11253 1.079397,0.18017 2.01073,0.15037 l 1.69344,-0.0543 0.10593,-2.96312 0.10594,-2.96313 0.68781,-0.0667 c 0.37835,-0.0365 0.68764,-0.13146 0.6873,-0.21136 -3.5e-4,-0.0799 -0.69112,-1.38356 -1.53479,-2.89698 -1.05678,-1.89567 -1.59366,-2.84416 -2.117184,-2.85977 z m -9.167916,15.42903 c -0.200926,0.062 -0.302824,0.59974 -0.302824,1.6123 0,0.91722 0.08958,1.5875 0.211874,1.5875 0.116417,0 0.211356,-0.49199 0.211356,-1.09347 0,-1.22396 0.156572,-1.19939 0.636654,0.10025 0.457321,1.23802 0.849941,1.20624 1.474845,-0.11885 l 0.523483,-1.11053 0.06976,1.11104 c 0.108055,1.73077 0.498457,1.34368 0.426847,-0.42323 -0.07799,-1.92458 -0.456613,-2.03642 -1.255221,-0.37052 l -0.558105,1.16427 -0.541569,-1.21698 c -0.39611,-0.89027 -0.696177,-1.30381 -0.897103,-1.24178 z m -5.699394,0.0248 c -0.153649,0 -0.468738,0.54759 -0.699698,1.21698 -0.230959,0.6694 -0.487795,1.38377 -0.571025,1.5875 -0.106982,0.26189 -0.05186,0.37052 0.188619,0.37052 0.18708,0 0.340548,-0.14319 0.340548,-0.31781 0,-0.45822 1.25606,-0.41681 1.599385,0.0527 0.148837,0.20399 0.341481,0.29931 0.427881,0.21291 0.231682,-0.23168 -0.958634,-3.12281 -1.28571,-3.12281 z m 14.49834,0 c -0.11647,0 -0.211873,0.47626 -0.211873,1.05834 0,0.58209 -0.07135,1.05815 -0.158647,1.05781 -0.08731,-3.3e-4 -0.396763,-0.45298 -0.687813,-1.00562 -0.78896,-1.49812 -1.150432,-1.34203 -1.226282,0.52968 -0.03909,0.9646 0.01977,1.53479 0.158647,1.53479 0.12154,0 0.220658,-0.42298 0.220658,-0.93999 0,-1.15267 0.284344,-1.38824 0.639754,-0.5302 0.14602,0.35253 0.450395,0.87585 0.676445,1.16324 0.22606,0.28739 0.499064,0.46824 0.606164,0.40204 0.26698,-0.16498 0.250737,-3.27009 -0.01705,-3.27009 z m 6.773234,0.007 c -0.35236,0.0216 -0.64404,0.13408 -0.71831,0.32763 -0.17372,0.45264 -0.1635,2.73398 0.0129,2.91041 0.24177,0.24176 1.12246,0.15526 1.75648,-0.1726 1.02789,-0.53153 1.04762,-2.30461 0.0315,-2.8484 -0.31688,-0.16959 -0.73027,-0.23862 -1.08262,-0.21704 z m 3.75894,0.031 c -0.53868,-0.007 -1.07176,0.27804 -1.3162,0.85938 -0.35976,0.85561 -0.22679,1.64223 0.3607,2.13579 1.1976,1.00613 2.98146,-0.61783 2.30632,-2.09961 -0.26803,-0.58828 -0.81214,-0.88827 -1.35082,-0.89556 z m -14.373283,0.002 -0.921391,0.0662 -0.06356,1.46244 c -0.0444,1.02511 0.01913,1.5167 0.211874,1.6428 0.390142,0.25523 1.495844,0.12059 1.599385,-0.19482 0.05687,-0.17328 -0.138534,-0.26459 -0.565857,-0.26459 -0.555039,0 -0.652673,-0.0791 -0.652673,-0.52916 0,-0.42333 0.105834,-0.52917 0.529167,-0.52917 0.291042,0 0.529166,-0.0955 0.529166,-0.21187 0,-0.11647 -0.238124,-0.21188 -0.529166,-0.21188 -0.723007,0 -0.690992,-0.58766 0.03669,-0.67386 0.311167,-0.0368 0.606597,-0.19188 0.656807,-0.34468 0.06804,-0.20667 -0.143614,-0.26066 -0.83044,-0.21136 z m 17.006713,0 c -0.55571,0.0641 -0.57305,0.10848 -0.63355,1.60042 -0.0514,1.26917 -0.006,1.53428 0.26458,1.53428 0.22197,0 0.3266,-0.20377 0.3266,-0.63511 0,-0.81077 0.34245,-0.81137 0.80356,-0.001 0.19831,0.34852 0.47977,0.63437 0.62529,0.6351 0.35686,0.002 0.33261,-0.23001 -0.0858,-0.82734 -0.27665,-0.39497 -0.29843,-0.58184 -0.10542,-0.8909 0.539,-0.86308 -0.0401,-1.54873 -1.19528,-1.41542 z m -11.36416,0.003 c -1.15058,-0.0626 -1.597499,0.23511 -0.79634,0.53072 0.55758,0.20572 0.68072,0.49375 0.68472,1.59628 0.002,0.55298 0.0986,1.00562 0.21497,1.00562 0.11726,0 0.21187,-0.55948 0.21187,-1.25522 0,-1.14062 0.0432,-1.26141 0.47594,-1.32291 0.8958,-0.12722 0.37692,-0.49089 -0.79116,-0.55449 z m 2.38125,0.005 c -0.25341,0.0833 -0.57206,0.60491 -0.85266,1.43454 -0.17719,0.52387 -0.38984,1.11918 -0.47284,1.32291 -0.10659,0.2617 -0.0512,0.37052 0.18913,0.37052 0.18708,0 0.34003,-0.14319 0.34003,-0.31781 0,-0.54525 1.41443,-0.41481 1.72134,0.15865 0.16697,0.312 0.28655,0.38074 0.34675,0.19999 0.0963,-0.28885 -0.73259,-2.75132 -1.04386,-3.1011 -0.0662,-0.0744 -0.14342,-0.0955 -0.22789,-0.0677 z m -14.327294,0.0682 c -0.247813,-0.15316 -0.529886,2.0151 -0.340031,2.61328 0.07789,0.24542 0.230425,0.44648 0.338997,0.44648 0.256914,0 0.257903,-2.90101 0.001,-3.05976 z m -2.238106,0.0408 c -0.244138,0.0578 -0.401618,2.01993 -0.220142,2.74298 0.09842,0.39217 0.266752,0.48731 0.859379,0.48731 0.513823,0 0.736906,-0.0959 0.736906,-0.31729 0,-0.19591 -0.199067,-0.3173 -0.519348,-0.3173 -0.488893,0 -0.522527,-0.0769 -0.581877,-1.32291 -0.03543,-0.74376 -0.155917,-1.30099 -0.274918,-1.27279 z m 19.43137,0.47904 c 0.63912,0 0.99477,0.37841 0.99477,1.05833 0,0.30269 -0.11455,0.66439 -0.25425,0.80409 -0.1397,0.1397 -0.47276,0.25424 -0.74052,0.25424 -0.44314,0 -0.48731,-0.0951 -0.48731,-1.05833 0,-0.96323 0.0442,-1.05833 0.48731,-1.05833 z m 3.55431,0 c 0.78889,0 1.17639,1.25911 0.57309,1.86242 -0.1397,0.1397 -0.4542,0.25424 -0.69867,0.25424 -0.59903,0 -0.95239,-0.39274 -0.95239,-1.05833 0,-0.70516 0.35969,-1.05833 1.07797,-1.05833 z m 2.95899,0 c 0.30289,0 0.41684,0.11393 0.36794,0.36793 -0.10626,0.5518 -0.80667,0.61323 -0.80667,0.0708 0,-0.30291 0.13582,-0.43873 0.43873,-0.43873 z m -27.977105,0.27853 c 0.05853,0.0314 0.116828,0.14761 0.197404,0.36122 0.108711,0.28823 0.155797,0.59586 0.104387,0.68316 -0.05141,0.0873 -0.23067,0.15865 -0.398425,0.15865 -0.343793,0 -0.399306,-0.58107 -0.100769,-1.05316 0.08052,-0.12734 0.138869,-0.18122 0.197403,-0.14987 z m 18.626255,0 c 0.0583,0.0314 0.11654,0.14767 0.19637,0.36122 0.13267,0.35481 0.11871,0.57426 -0.0424,0.67955 -0.13086,0.0856 -0.30905,0.15716 -0.39635,0.15916 -0.22174,0.005 -0.19282,-0.67407 0.045,-1.05006 0.0805,-0.12731 0.13913,-0.18122 0.19741,-0.14987 z m -71.2525,6.77117 c 0.205945,-0.0535 0.491799,-0.0503 0.635104,0.008 0.143305,0.058 -0.0254,0.10167 -0.374654,0.0977 -0.349255,-0.004 -0.466395,-0.0517 -0.26045,-0.10542 z" /><rect
       style="fill:#000000;fill-opacity:0;stroke:#f9f9f9;stroke-width:0.899583;stroke-opacity:1"
       id="rect9"
       width="25.543941"
       height="17.738848"
       x="58.892971"
       y="181.76407" /><rect
       style="fill:none;stroke:#ffe680;stroke-width:0.873371"
       id="rect10"
       width="45.467876"
       height="47.732437"
       x="50.838257"
       y="161.76518" /><rect
       style="fill:none;stroke:#66ff00;stroke-width:0.904441"
       id="rect11"
       width="41.666611"
       height="47.881348"
       x="114.22281"
       y="161.58566" /><path
       style="fill:#ff5555;stroke:none;stroke-width:2.7102"
       d="m 416.59829,363.28678 c -0.26435,-0.98644 -0.48809,-3.58704 -0.49719,-5.77911 -0.009,-2.19208 -0.24706,-6.42655 -0.5288,-9.40994 -0.48797,-5.16722 -0.61995,-5.44589 -2.78425,-5.87875 -1.2496,-0.24992 -2.272,-0.62338 -2.272,-0.82991 0,-0.52263 7.06333,-13.52508 9.32243,-17.1611 3.34357,-5.38146 4.83795,-4.19381 12.51844,9.94893 2.07879,3.82785 3.55374,7.32521 3.27767,7.7719 -0.27607,0.4467 -1.37754,0.81217 -2.4477,0.81217 -1.92435,0 -1.94576,0.0821 -1.94576,7.46138 0,4.10375 -0.2281,9.1256 -0.5069,11.15966 l -0.50691,3.69828 h -6.57419 c -6.14386,0 -6.60565,-0.1174 -7.05484,-1.79351 z"
       id="path14"
       transform="matrix(0.26458333,0,0,0.26458333,-12.11554,124.89825)" /><path
       style="fill:#80b3ff;fill-opacity:1;stroke:#80b3ff;stroke-width:0.263848;stroke-opacity:1"
       d="m 3.427637,119.96386 -4.744616,5.58405 1.75185797,0.0365 -3.24823697,5.98551 5.839527,-7.15342 -2.26281603,0.21899 z"
       id="path3" /></g></svg>
