<?xml version="1.0" encoding="UTF-8" standalone="no"?>
<!-- Created with Inkscape (http://www.inkscape.org/) -->

<svg
   width="157.98126mm"
   height="16.501614mm"
   viewBox="0 0 157.98126 16.501614"
   version="1.1"
   id="svg1"
   xml:space="preserve"
   sodipodi:docname="diag1.svg"
   inkscape:version="1.4 (86a8ad7, 2024-10-11)"
   xmlns:inkscape="http://www.inkscape.org/namespaces/inkscape"
   xmlns:sodipodi="http://sodipodi.sourceforge.net/DTD/sodipodi-0.dtd"
   xmlns:xlink="http://www.w3.org/1999/xlink"
   xmlns="http://www.w3.org/2000/svg"
   xmlns:svg="http://www.w3.org/2000/svg"><sodipodi:namedview
     id="namedview1"
     pagecolor="#ffffff"
     bordercolor="#000000"
     borderopacity="0.25"
     inkscape:showpageshadow="2"
     inkscape:pageopacity="0.0"
     inkscape:pagecheckerboard="0"
     inkscape:deskcolor="#d1d1d1"
     inkscape:document-units="mm"
     inkscape:zoom="1.2545185"
     inkscape:cx="328.8114"
     inkscape:cy="123.15482"
     inkscape:window-width="1920"
     inkscape:window-height="991"
     inkscape:window-x="-9"
     inkscape:window-y="-9"
     inkscape:window-maximized="1"
     inkscape:current-layer="layer1" /><defs
     id="defs1"><clipPath
       clipPathUnits="userSpaceOnUse"
       id="clipPath2"><rect
         style="fill:none;stroke:#000000;stroke-width:0.899583"
         id="rect2"
         width="167.51877"
         height="28.816298"
         x="21.516171"
         y="105.65977" /></clipPath></defs><g
     inkscape:label="Capa 1"
     inkscape:groupmode="layer"
     id="layer1"
     transform="translate(-20.101561,-43.765238)"><path
       style="fill:#ffff00;stroke:none;stroke-width:1.00565"
       d="m 217.39812,208.48606 c -0.75861,-0.39215 -1.56848,-1.10991 -1.89606,-1.68043 -0.7839,-1.36526 -0.80161,-4.00501 -0.0354,-5.28943 l 0.5734,-0.96129 h 3.45157 c 3.43445,0 3.45433,0.004 4.00321,0.8134 0.80759,1.19081 0.77343,4.46597 -0.0583,5.57985 -1.56396,2.09477 -3.83986,2.6744 -6.03845,1.5379 z"
       id="path13" /><path
       style="fill:#ffff00;stroke:none;stroke-width:1.00135"
       d="m 199.27249,208.79883 c -2.01192,-0.58536 -3.57955,-3.26055 -3.17174,-5.41269 0.49026,-2.58733 1.13071,-2.90644 5.53526,-2.75802 l 2.65064,0.0894 0.69558,1.40242 c 1.22165,2.46309 0.3264,5.19465 -2.08511,6.36205 -1.37753,0.66686 -2.18051,0.73706 -3.62463,0.3169 z"
       id="path12" /><path
       style="fill:#ffff00;stroke:none;stroke-width:1.0076"
       d="m 181.52377,208.86499 c -1.40858,-0.33994 -2.12369,-0.8283 -2.78886,-1.90456 -0.74501,-1.20547 -0.84341,-3.93581 -0.18753,-5.20412 0.52219,-1.00982 1.33934,-1.21031 4.93289,-1.21031 2.52442,0 2.6431,0.0303 3.14874,0.80194 0.38061,0.58087 0.52545,1.39242 0.52545,2.94405 0,1.97481 -0.0695,2.21516 -0.88906,3.0771 -1.57249,1.65371 -2.6626,1.99762 -4.74163,1.4959 z"
       id="path11" /><rect
       style="fill:#b3b3b3;stroke:#000000;stroke-width:0.899583"
       id="rect8"
       width="33.940331"
       height="23.178761"
       x="54.517391"
       y="179.39888" /><image
       width="265.85333"
       height="139.91167"
       preserveAspectRatio="none"
       xlink:href="../../../OneDrive/Documents/Screenshots/im184.jpg"
       id="image1"
       x="-20.533363"
       y="337.22693" /><path
       id="path5"
       style="fill:#000000"
       d="m 174.75781,43.772531 c -0.32687,0.02985 -0.70629,0.150093 -0.91674,0.340548 -0.47508,0.429912 -0.50031,1.199324 -0.0543,1.645377 0.39632,0.396104 0.73306,0.416319 1.45624,0.08682 0.61384,-0.279683 0.77515,-0.955144 0.16847,-0.705384 -0.99513,0.409689 -1.15064,0.391183 -1.07694,-0.130224 0.0508,-0.359262 0.20917,-0.507814 0.54622,-0.512114 0.26099,-0.0033 0.47552,-0.07464 0.47646,-0.158646 10e-4,-0.08401 0.002,-0.247902 0.002,-0.364319 0,-0.171233 -0.27414,-0.231909 -0.601,-0.202055 z m 2.35179,0.0615 c -0.12157,-0.0987 -0.33195,0.01747 -0.68626,0.304374 -0.45824,0.371025 -0.4593,0.384951 -0.0765,1.0573 0.57763,1.014516 0.91726,0.875792 0.91726,-0.374654 0,-0.574554 -0.0329,-0.888317 -0.15452,-0.98702 z m -22.07048,0.775146 v 4.127914 c 0,2.270125 -0.0544,4.127396 -0.12093,4.127396 -0.0665,0 -0.26826,-0.14734 -0.44803,-0.327111 -0.27844,-0.278448 -1.11461,-0.323925 -5.64669,-0.307475 -2.92606,0.0107 -5.43915,0.0148 -5.58467,0.0093 -0.19628,-0.0074 -0.26458,-0.659513 -0.26458,-2.526978 0,-2.100237 -0.0555,-2.538643 -0.33486,-2.645833 -0.49408,-0.189592 -18.35355,-0.150017 -18.65468,0.04134 -0.1694,0.107648 -0.27791,0.953781 -0.31781,2.483569 l -0.0605,2.320789 -6.03219,0.05581 -6.03271,0.05633 0.0744,-1.792656 0.0739,-1.792655 -1.55597,-0.06253 c -1.47866,-0.05951 -1.55928,-0.0888 -1.62988,-0.591695 -0.0408,-0.291042 -0.18403,-0.599183 -0.31781,-0.684713 -0.39165,-0.250386 -18.093491,-0.196198 -18.566307,0.05685 -0.362798,0.194162 -0.409278,0.459739 -0.409278,2.33164 V 51.601 l -6.044075,-0.05633 -6.044076,-0.05581 -0.0677,-2.041219 c -0.03732,-1.122605 -0.13274,-2.14644 -0.21239,-2.275314 -0.215106,-0.348052 -18.567523,-0.328998 -18.916158,0.01964 -0.16114,0.16114 -0.253731,0.973254 -0.253731,2.222087 0,1.082675 -0.04936,1.968872 -0.109554,1.968872 -0.06019,0 -0.798688,-0.415371 -1.640727,-0.922941 -2.493718,-1.50318 -2.461142,-1.4915 -2.924369,-1.072286 -0.266321,0.241018 -0.40566,0.647784 -0.40566,1.183907 v 0.817005 l -6.931877,-0.05581 -6.932393,-0.05581 -0.10542,-2.75177 c -0.104842,-2.725886 -0.110619,-2.75177 -0.608749,-2.75177 -0.40791,0 -0.947581,0.627068 -2.857706,3.320728 -1.295062,1.826297 -2.422561,3.326347 -2.505791,3.333647 -0.08323,0.0073 -1.17891,-1.428759 -2.434476,-3.191537 -1.255566,-1.762777 -2.436225,-3.302047 -2.62413,-3.420463 -0.187906,-0.11842 -0.497364,-0.155762 -0.687813,-0.08268 -0.29602,0.113593 -0.346749,0.532289 -0.346749,2.885612 v 2.752803 l -3.22771,0.05839 c -3.067329,0.05552 -3.22771,0.07987 -3.22771,0.482141 0,0.402196 0.16041,0.426174 3.215308,0.481624 l 3.215308,0.05839 0.06563,0.788065 c 0.05666,0.683264 0.142984,0.797195 0.647505,0.855245 l 0.581877,0.06718 V 51.185 c 0,-1.637566 0.07363,-2.977079 0.163298,-2.977079 0.08967,0 0.946283,1.127895 1.903759,2.506307 1.987767,2.86165 2.401186,3.299026 2.94504,3.118673 0.337419,-0.111894 2.101668,-2.429888 3.675745,-4.82968 0.285829,-0.435767 0.58828,-0.792955 0.67231,-0.79375 0.08403,-7.96e-4 0.179484,1.308138 0.211874,2.908867 l 0.05891,2.910416 0.568957,0.06563 c 0.531787,0.06141 0.573714,0.0058 0.635104,-0.84646 l 0.06563,-0.912606 6.932393,-0.05581 c 6.897104,-0.05553 6.931877,-0.05345 6.931877,0.384473 0,0.628275 0.382897,1.258838 0.764294,1.258838 0.179321,0 0.97827,-0.380794 1.775602,-0.84646 0.797331,-0.465667 1.695393,-0.846977 1.995227,-0.846977 0.519254,0 0.545187,0.05527 0.545187,1.157035 0,0.909732 0.08358,1.201145 0.392224,1.366325 0.464697,0.248701 17.110627,0.300136 18.234029,0.05633 0.706078,-0.153237 0.744146,-0.20765 0.805636,-1.158586 l 0.06459,-0.997872 h 6.020821 6.020821 v 0.945162 c 0,0.695889 0.101414,0.999105 0.383956,1.150317 0.42913,0.229663 17.080887,0.329569 18.178737,0.109038 0.59508,-0.119537 0.68402,-0.22851 0.74052,-0.905371 l 0.0646,-0.769979 7.09052,-0.05891 c 3.89995,-0.03251 7.30504,-0.007 7.56698,0.05684 0.37655,0.09175 0.47646,0.265382 0.47646,0.828373 0,0.502289 0.10924,0.739128 0.37052,0.803568 0.20372,0.05025 4.33842,0.116685 9.18858,0.147795 6.19252,0.03973 8.95007,-0.01374 9.26042,-0.179834 0.26227,-0.140368 0.44235,-0.446214 0.44235,-0.751892 v -0.515214 l 5.66167,-0.05943 c 3.11414,-0.03276 5.82898,-0.141042 6.03271,-0.240812 0.34462,-0.168773 0.37052,0.04646 0.37052,3.095935 0,3.639137 0.012,3.673566 1.37821,3.799251 v -5.17e-4 c 1.63974,0.150853 12.90826,-0.06615 13.09429,-0.252181 0.1038,-0.103769 0.13149,-0.337931 0.0615,-0.520381 -0.11167,-0.290998 -0.9081,-0.331763 -6.48436,-0.331763 h -6.3562 v -1.901693 -1.902209 l 6.39961,-0.05581 c 6.07185,-0.05315 6.40443,-0.07668 6.47713,-0.454235 0.0421,-0.218883 -0.0523,-0.479297 -0.20929,-0.578777 -0.15698,-0.09948 -3.07142,-0.182168 -6.47661,-0.183968 l -6.19084,-0.0031 v -1.775086 -1.774568 l 1.21388,-0.151412 c 0.66764,-0.0834 3.47244,-0.118415 6.23321,-0.07751 5.17361,0.07664 5.68615,0.0046 5.39347,-0.758093 -0.11167,-0.290998 -0.9081,-0.331763 -6.48436,-0.331763 h -6.3562 v -1.693437 -1.693436 h 6.43837 c 3.54119,0 6.58909,-0.0575 6.77323,-0.128158 0.43149,-0.165576 0.43149,-0.635924 0,-0.801501 -0.18414,-0.07066 -3.61335,-0.128675 -7.62021,-0.128675 z m 22.18675,2.995683 c -0.14325,-0.02389 -0.30835,0.008 -0.53846,0.08888 -0.64068,0.225317 -0.89851,0.891716 -0.45166,1.167887 0.22587,0.13961 0.2305,0.228909 0.0212,0.438216 -0.14455,0.144548 -0.26303,0.338885 -0.26303,0.432015 0,0.202723 1.56285,0.229294 1.76217,0.02997 0.0766,-0.0766 0.0394,-0.259583 -0.0827,-0.406693 -0.1568,-0.188907 -0.14188,-0.395549 0.0506,-0.703833 0.23043,-0.369044 0.21642,-0.492571 -0.0904,-0.799434 -0.14317,-0.143174 -0.26447,-0.223126 -0.40773,-0.247014 z m -2.57555,0.05219 c -0.14916,0.02555 -0.30893,0.117357 -0.53485,0.285254 -0.74084,0.550567 -0.8339,1.39061 -0.20309,1.832447 0.26538,0.185882 0.49463,0.337963 0.50953,0.337963 0.40496,0 1.36064,-0.55048 1.36064,-0.783931 0,-0.221017 -0.11423,-0.272595 -0.37052,-0.167432 -0.70209,0.288088 -1.00522,0.213013 -1.07332,-0.265617 -0.0576,-0.40517 0.0297,-0.476456 0.5824,-0.476456 0.75358,0 0.84691,-0.302829 0.19998,-0.649056 -0.18287,-0.09787 -0.32161,-0.138723 -0.47077,-0.113172 z M 59.723486,47.996037 h 7.79539 7.79539 l -0.476974,0.507979 c -0.601654,0.640432 -2.649693,1.567664 -4.097424,1.855184 -2.04032,0.405203 -5.627731,0.399399 -7.057967,-0.01137 -1.423742,-0.408902 -2.932034,-1.217598 -3.555339,-1.906343 z m 30.968653,0 h 8.25531 8.254791 v 2.963643 2.963127 h -8.254791 -8.25531 V 50.95968 Z m 34.290411,0 h 6.70244 c 3.68652,0 6.66308,0.03852 6.61458,0.08527 -0.0485,0.04675 -1.37394,0.610164 -2.94556,1.25212 -2.80019,1.14378 -7.31485,3.056091 -8.5726,3.631303 -0.34925,0.159724 -0.89683,0.355822 -1.21698,0.435632 l -0.58188,0.145211 v -2.775025 z m 16.32614,0.145727 c 0.17253,-0.02233 0.25855,0.01925 0.2961,0.119373 0.0545,0.145296 0.0712,1.454691 0.0367,2.9099 l -0.063,2.645833 -6.9603,0.05581 c -3.82828,0.03072 -6.91621,0.0117 -6.86211,-0.04237 0.091,-0.09105 10.45307,-4.504671 12.73772,-5.425509 0.38362,-0.154618 0.64241,-0.240707 0.81494,-0.263033 z m -82.154678,0.838709 0.476457,0.42633 c 0.888038,0.794319 1.953749,1.309643 3.651456,1.765267 1.417079,0.380308 2.089081,0.437951 4.12688,0.354501 3.26763,-0.133818 4.665562,-0.428378 6.614584,-1.394231 l 1.640726,-0.81287 v 2.301669 2.301668 h -8.25531 -8.254793 V 51.45164 Z m 51.223228,0.261483 v 1.053165 c 0,0.579256 0.058,1.203882 0.12868,1.388029 0.10577,0.275651 -0.0454,0.334864 -0.8537,0.334864 -1.13492,0 -1.23326,-0.139998 -1.13946,-1.614889 l 0.0656,-1.030945 0.89917,-0.06511 z m 66.88274,3.881416 c -0.15671,-0.02211 -0.33688,-0.0077 -0.54053,0.04341 -0.49871,0.125168 -0.74013,0.756026 -0.28939,0.756026 0.12328,0 0.16878,0.08918 0.10128,0.198437 -0.0675,0.109262 0.0449,0.292887 0.25012,0.407727 0.20523,0.11484 0.31168,0.270189 0.23668,0.345199 -0.075,0.07501 -0.33398,0.01296 -0.57568,-0.137976 -0.34831,-0.217528 -0.57855,-0.222308 -1.11001,-0.0217 -0.77353,0.291974 -1.03198,0.196775 -1.03198,-0.380856 0,-0.29712 0.14648,-0.410827 0.52917,-0.410827 0.31119,0 0.52917,-0.121673 0.52917,-0.295073 0,-0.409352 -0.54222,-0.576459 -1.13689,-0.350366 -0.81049,0.308147 -1.01972,1.286414 -0.41754,1.951819 0.42774,0.472651 0.88819,0.491075 1.50223,0.06098 0.4186,-0.293196 0.52782,-0.292799 1.09503,5.17e-4 0.49355,0.255227 0.74246,0.274292 1.14825,0.0894 0.43683,-0.199012 0.5115,-0.368086 0.4749,-1.07952 -0.0368,-0.715899 -0.29468,-1.110865 -0.76481,-1.17719 z m -2.6448,4.834331 c -0.26725,0.01744 -0.54675,0.131169 -0.77411,0.33693 -0.43413,0.392877 -0.49464,0.958472 -0.16795,1.568896 0.26346,0.492282 1.18849,0.54349 1.82056,0.10077 0.34587,-0.242252 0.6105,-0.262118 1.23042,-0.09095 1.1333,0.312919 1.42548,0.136223 1.34668,-0.815971 -0.0858,-1.036689 -0.66679,-1.142117 -1.57354,-0.285254 -0.3634,0.343399 -1.01448,0.690916 -1.44694,0.772046 -0.73992,0.138812 -0.7822,0.118027 -0.7152,-0.355534 0.0579,-0.409263 0.18031,-0.4919 0.6537,-0.44235 0.62124,0.06503 0.74052,-0.134883 0.32763,-0.54777 -0.17922,-0.179222 -0.434,-0.258255 -0.70125,-0.240812 z"
       sodipodi:nodetypes="csssccsssccsccccscccsssssssccccsscssssccscccccsssssscccccssssssssccccssscccssssssccssccssscccccscccccssscccsssscssssssscssssssssssssccccssccccccscccccssssccccssccccssccsscscccccccsssccccsssssssssssssssscsssssscssssssssssssssssscsssssssssssss" /><rect
       style="fill:none;stroke:#000000;stroke-width:0.899583"
       id="rect9"
       width="25.543941"
       height="17.738848"
       x="58.892971"
       y="181.76407" /><rect
       style="fill:none;stroke:#ffe680;stroke-width:0.873371"
       id="rect10"
       width="45.467876"
       height="47.732437"
       x="50.838257"
       y="161.76518" /><rect
       style="fill:none;stroke:#66ff00;stroke-width:0.904441"
       id="rect11"
       width="41.666611"
       height="47.881348"
       x="114.22281"
       y="161.58566" /><path
       style="fill:#ff5555;stroke:none;stroke-width:2.7102"
       d="m 416.59829,363.28678 c -0.26435,-0.98644 -0.48809,-3.58704 -0.49719,-5.77911 -0.009,-2.19208 -0.24706,-6.42655 -0.5288,-9.40994 -0.48797,-5.16722 -0.61995,-5.44589 -2.78425,-5.87875 -1.2496,-0.24992 -2.272,-0.62338 -2.272,-0.82991 0,-0.52263 7.06333,-13.52508 9.32243,-17.1611 3.34357,-5.38146 4.83795,-4.19381 12.51844,9.94893 2.07879,3.82785 3.55374,7.32521 3.27767,7.7719 -0.27607,0.4467 -1.37754,0.81217 -2.4477,0.81217 -1.92435,0 -1.94576,0.0821 -1.94576,7.46138 0,4.10375 -0.2281,9.1256 -0.5069,11.15966 l -0.50691,3.69828 h -6.57419 c -6.14386,0 -6.60565,-0.1174 -7.05484,-1.79351 z"
       id="path14"
       transform="matrix(0.26458333,0,0,0.26458333,-12.11554,124.89825)" /></g></svg>
